<?xml version="1.0" encoding="UTF-8"?>
<!-- Created with Inkscape (http://www.inkscape.org/) -->
<svg width="149.19mm" height="117.01mm" version="1.1" viewBox="0 0 149.19 117.01" xmlns="http://www.w3.org/2000/svg">
 <defs>
  <clipPath id="clipPath31947">
   <path d="m34.418 177.53-3.1828 9.2981c0.06435 0.0764 0.12574 0.15535 0.19023 0.23166 0.32971 0.45932 0.45108 0.99611 0.53708 1.5353 0.06097 0.32027 0.02725 0.64211 0.06034 0.96356 0.01983 0.25875 0.04528 0.51579 0.062 0.7744 0.0031 0.31434-0.0038 0.62529-0.04196 0.93582-0.04423 0.31968-0.08315 0.63895-0.1508 0.95469-0.06035 0.26197-0.13329 0.52031-0.21461 0.7757-0.0307 0.0947-0.06399 0.1886-0.0967 0.28251-0.0032 9e-3 -0.0062 0.0182-0.0094 0.0275l-2.2572-0.86913-1.3286 3.8812 25.256 9.5416 6.4324-18.791z" fill="#f00"/>
  </clipPath>
  <clipPath id="clipPath31989">
   <path d="m65.415 142.16v26.981h19.49c-0.15647-0.14858-0.29816-0.31099-0.42685-0.48679-0.10458-0.12572-0.17317-0.27194-0.23358-0.42168-0.06475-0.0378-0.15292-0.0969-0.21394-0.13178-0.0866-0.0626-0.18223-0.10456-0.2806-0.14366l0.95188-2.3166c0.20129 0.0836 0.39996 0.17574 0.58394 0.29352 0.13666 0.0817 0.27765 0.15746 0.4129 0.2403v-0.66198h1.4258c0.5445 2e-3 1.1227 0.0165 1.6232 0.26149 0.13305 0.0651 0.25591 0.14926 0.38396 0.22375 0.45467 0.31719 0.73956 0.78237 0.99219 1.2625 0.1593 0.28164 0.23068 0.59868 0.36432 0.89142 0.10122 0.23808 0.20714 0.47252 0.30541 0.71158 0.03221 0.0925 0.06288 0.18512 0.0925 0.27802h7.6088v-26.981zm22.01 25.859c0.04272 0.0393 0.08619 0.0777 0.12868 0.11731 0.09347 0.0795 0.19764 0.14751 0.30644 0.20981-0.05244-0.0852-0.1263-0.20073-0.13488-0.25374-0.0013-8e-3 0.01585 3e-3 0.02379 5e-3 -0.0016-5e-3 -0.0036-0.011-0.0052-0.016 0.02511 6e-3 0.05124 0.0266 0.07545 0.0176 0.01762-7e-3 -0.035-0.015-0.04909-0.0274-0.0053-5e-3 0.0019-0.0192-0.0052-0.0202-0.11088-0.0227-0.22535-0.0299-0.34003-0.0325z" fill="#f00"/>
  </clipPath>
  <clipPath id="clipPath32009">
   <path d="m83.402 166.58v16.433h9.1679v-16.433h-2.8603c0.15704 0.21377 0.2897 0.44714 0.41445 0.6842 0.1593 0.28165 0.23068 0.59868 0.36432 0.89142 0.10122 0.23808 0.20714 0.47252 0.30541 0.71158 0.10332 0.29676 0.19629 0.59386 0.25993 0.90176 0.06088 0.31874 0.12658 0.63519 0.16433 0.95859 0.02738 0.26983 0.04184 0.54073 0.04754 0.81184 0.0016 0.10069 5.3e-4 0.20162 0 0.30231-5.8e-5 0.01 6.7e-5 0.0196 0 0.0294l-2.5042-0.016c6e-5 -9e-3 -6.1e-5 -0.0194 0-0.0284 5.29e-4 -0.0795 0.0011-0.15914 0-0.23874-0.0033-0.19466-0.01439-0.38907-0.03256-0.58291-0.02685-0.26417-0.08961-0.51857-0.13746-0.77928 0.02027-0.16221-0.14454-0.32878-0.14624-0.48886 0.08356 0.12618-0.1531-0.3392-0.22376-0.50385l-0.74 1.727c-0.49141-0.21483-0.9599-0.48627-1.3994-0.79272-0.31039-0.25139-0.59514-0.53037-0.90124-0.78703-0.27022-0.206-0.50195-0.44823-0.70228-0.72192-0.10458-0.12572-0.17317-0.27194-0.23358-0.42168-0.06475-0.0378-0.15292-0.0969-0.21394-0.13177-0.0866-0.0626-0.18223-0.10457-0.2806-0.14367l0.56741-1.3813zm4.023 1.4433c0.0428 0.0394 0.0861 0.0781 0.12868 0.11782 0.0941 0.08 0.19889 0.14872 0.30851 0.21136-0.05249-0.0849-0.12872-0.20449-0.13694-0.25529-0.0013-8e-3 0.01585 3e-3 0.02379 5e-3 -0.0016-5e-3 -0.0036-0.011-0.0052-0.016 0.02511 6e-3 0.05124 0.0266 0.07545 0.0176 0.01762-7e-3 -0.035-0.015-0.04909-0.0274-0.0053-5e-3 0.0019-0.0192-0.0052-0.0202-0.11085-0.0227-0.22538-0.0304-0.34003-0.0331z" fill="#f00"/>
  </clipPath>
  <clipPath id="clipPath34483">
   <path d="m316.72 638.04v46.318h27.773v-37.693l-1.0078 6.0527c-1.9134-0.34092-3.8796-0.631-5.7031-1.334-0.73228-0.28229-1.4384-0.62737-2.1543-0.94922h-5.1641c0-0.21452 0.0871-0.44837 0-0.64453-0.0366-0.0824-0.22068 0.12165-0.26758 0.0449-0.28859-0.47304-0.38029-1.044-0.64063-1.5332-0.34789-0.65367-0.77677-1.2622-1.1777-1.8848-0.78241-1.2148-1.5807-2.4194-2.377-3.625-0.51687-0.59846-1.0234-1.2064-1.5117-1.8301-0.74071-0.91946-1.3438-1.9445-2.0078-2.9219zm17.707 0c1.4638 1.4951 3.1115 2.7931 5.0176 3.7305 1.6159 0.83503 3.2811 1.2468 5.0488 1.5274v-1.1602l-1.8789 0.30469c-0.0403-0.26586-0.25038-1.0118-0.23828-1.2598 2e-3 -0.0435 0.13337 0.10219 0.11523 0.0625-0.0781-0.17337-0.20305-0.32179-0.30469-0.48242-0.59889-0.91933-1.2705-1.7859-1.9375-2.6562-0.018-0.0228-0.0385-0.0437-0.0566-0.0664z" fill="#f00"/>
  </clipPath>
  <clipPath id="clipPath168711">
   <path d="m42.112 136.09v23.214h40.105l-0.02842-0.61133c0.01363-1e-3 0.01069 2e-3 0.02997-4e-3 0.08609-0.0201 0.17121-0.0448 0.25838-0.0599 0.08045-0.0155 0.15961-0.0363 0.23978-0.0532 0.06053-7e-3 0.11909-0.0144 0.17983-0.0114 0.01445 0 0.02426 7.9e-4 0.04393-4e-3 0.05636-7e-3 0.10815-0.0389 0.16536-0.0429 0.07179-0.0116 0.14154-0.0396 0.21497-0.0403 0.01048-1.2e-4 0.02087-2.7e-4 0.03152 2e-3 0.06883 0 0.13791 2.1e-4 0.20671 2e-3 0.08584 4e-3 0.17183 0.0102 0.25528 0.032 0.01601 4e-3 0.01992 6e-3 0.02791 8e-3 0.0064 1e-5 0.01111-1.3e-4 0.03307 0 0.0715 1e-3 0.14262 6e-3 0.21239 0.0227 0.11879 0.0302 0.23766 0.0724 0.32608 0.16227 0.03147 0.0314 0.06335 0.0629 0.09302 0.0961 0.03377 0.0387 0.065 0.0795 0.09043 0.12403 0.0469 0.0416 0.09364 0.0834 0.13022 0.13487 0.03776 0.0648 0.0701 0.12116 0.10077 0.18966 0.0076 0.0178 0.01574 0.0356 0.02376 0.0532h4.7816c0.01913-0.0225 0.03853-0.0452 0.0584-0.0672 0.05451-0.0642 0.11499-0.13102 0.14883-0.20722l0.41031 0.16433c0.02918-0.0256 0.05848-0.051 0.08682-0.0775l0.18759 0.18758h19.837v-23.214zm41.24 23.115c-0.01072 1e-5 -0.02135-5.3e-4 -0.03204 5.3e-4 0.0077 2.5e-4 0.01556 2.4e-4 0.02326 5.3e-4 1.85e-4 2.2e-4 0.0011 7.9e-4 5.29e-4 1e-3 -0.03031 9e-3 -0.06217 0.0147-0.09302 0.0217-0.04396 0.01-0.10438 0.0294-0.1633 0.0424-0.05709 0.0124-0.11488 0.0176-0.17312 0.0196-0.0074-2.1e-4 -0.04302 2.5e-4 -0.07028 5.3e-4 -0.01945 4e-3 -0.03895 9e-3 -0.05839 0.0129h1.1917c-0.01066-0.021-0.0208-0.0425-0.02997-0.0641-0.0056-0.0132 0.01 0.0269 0.01498 0.0403 0.0044 6e-3 0.0089 0.0132-0.0016 2e-3 -0.0094-0.01-0.01934-0.0195-0.02894-0.0289-0.0027-1.2e-4 -0.0065-5.3e-4 -0.01085-2e-3 -0.02782-5e-3 -0.02968-4e-3 -0.05788-4e-3 -0.0557 2e-3 -0.10748-3e-3 -0.1633-0.0129-0.14453-0.0273-0.03035-0.013-0.06408-0.0171-0.03523-9e-3 -0.07136-0.0104-0.10749-0.0114-0.05861-1e-3 -0.11759-1e-3 -0.17622-1e-3z" fill="#f00"/>
  </clipPath>
  <clipPath id="clipPath168721">
   <path d="m330.41 596.22v15.91c0.0399-0.0668 0.08-0.13305 0.12695-0.19532 0.18982-0.28044 0.4002-0.54478 0.61133-0.80859 0.17079-0.24673 0.33204-0.49753 0.51172-0.73828 0.19051-0.25157 0.39567-0.49205 0.58593-0.74414 0.23704-0.27504 0.49556-0.53092 0.73829-0.80078 0.28772-0.32183 0.55889-0.66091 0.89062-0.93946 0.19662-0.16966 0.36181-0.32495 0.52539-0.54492 0.18054-0.17873 0.39078-0.33932 0.5293-0.49804 0.21926-0.28177 0.44635-0.55587 0.70703-0.80079 0.16411-0.16939 0.325-0.34277 0.47656-0.52343 0.0434-0.0507 0.18261-0.21265 0.2207-0.25196 0.0602-0.0622 0.22443-0.23373 0.22461-0.22265 0.0229-0.0228 0.0454-0.0456 0.0684-0.0684 0.0135-0.0186 0.029-0.0364 0.043-0.0547 0.0963-0.22673 0.29478-0.41671 0.42188-0.62109 0.17878-0.2092 0.37274-0.40283 0.56054-0.60352 0.14038-0.15659 0.22034-0.35481 0.32813-0.5332 0.296-0.47305 0.63724-0.91419 1.0117-1.3281 0.20602-0.24283 0.4346-0.4952 0.5625-0.7832l1.5508 0.62109c0.11028-0.0969 0.22104-0.19277 0.32812-0.29297l1.9414 1.9414c-0.35203 0.34201-0.73674 0.64819-1.0996 0.97852-0.41117 0.39174-0.81669 0.80924-1.1211 1.291-0.35896 0.67185-0.7756 1.3008-1.252 1.8945-0.53938 0.65949-1.1583 1.2451-1.7344 1.8711-0.43549 0.47406-0.86044 0.95794-1.2598 1.4629-0.46419 0.64157-0.9878 1.2336-1.4766 1.8555-0.27061 0.35353-0.54499 0.70572-0.82226 1.0547 0.0221 6e-3 0.0445 8e-3 0.0664 0.0156 0.23951 0.12563 0.24405 0.12665 0.32422 0.16797 0.22368 0.0654 0.44078 0.15706 0.63281 0.29101 0.0688 0.0524 0.10281 0.0782 0.13867 0.10547 0.09 3e-3 0.18088 6e-3 0.20899 0.0156 0.48455 0.0584 0.96397 0.1703 1.3398 0.50781 0.13104 0.11187 0.25146 0.22504 0.36719 0.35351 3e-3 4e-3 -0.12771-0.10189-0.0781-0.0547 0.026 0.0246 0.0556 0.0418 0.084 0.0645 0.23349 0.17564 0.47433 0.35008 0.73633 0.48047 0.7794 0.35599 1.6247 0.52402 2.4726 0.62305 0.69471 0.0835 1.3896 0.12424 2.0898 0.10156h1.3301v0.42773c1.5606-0.0759 3.1212-0.11334 4.6836-0.10937 0.2327 5.9e-4 0.46648 2e-3 0.69922 4e-3h1.7031v1.7637c0.33259-0.0181 0.66568-0.0296 0.99805-0.0508 0.21712-0.0439 0.43168-0.0998 0.65039-0.13476 0.65247-0.0817 1.3076-0.13269 1.9648-0.12891 0.0939 5.4e-4 0.18723 3e-3 0.28125 6e-3v0.0312c0.19145-0.0164 0.38303-0.0325 0.57422-0.0508l-6e-3 -0.33984c0.38683-6e-3 0.77618-0.0236 1.166-0.0254 0.38983-2e-3 0.77949 0.0112 1.1641 0.0664 0.0716 0.0102 0.13783 0.0418 0.20703 0.0645-7.2e-4 2.601 0.74002 2.5174-0.6875 2.7695-1.1283 0.18104-2.2669 0.25229-3.4043 0.35547-0.51047 0.0404-1.0222 0.0739-1.5332 0.10742-0.69226 0.1482-1.3791 0.32431-2.0625 0.50781-0.93227 0.277-1.8817 0.4824-2.8281 0.70313-1.1609 0.27564-2.3229 0.54485-3.4805 0.83398-1.193 0.34209-2.4 0.61049-3.623 0.81836-0.95426 0.16668-1.9199 0.2655-2.8887 0.26172-0.13259-8e-3 -0.2639-0.012-0.39648-0.0195l0.14257-2.7402c0.0961 4e-3 0.191 0.0118 0.28711 0.0156 0.57831 0.0142 1.1549-0.0506 1.7285-0.13086-0.27534 1e-5 -0.55083-3.8e-4 -0.82617 0h-4.1309v-2.7422h2.6914l-0.0137-0.44336c-0.02-8e-3 -0.0406-0.0148-0.0605-0.0234-0.45405-0.20522-0.86398-0.49268-1.2637-0.78711-0.126-0.0892-0.2784-0.23664-0.38867-0.34765-5e-3 -5.4e-4 -7e-5 6e-4 -6e-3 0-0.29585-3.8e-4 -0.58088-0.064-0.86133-0.1543-0.2513-0.0758-0.45996-0.22111-0.6582-0.38281-0.0383-0.0142-0.0603-0.0225-0.26953-0.0977-7e-3 -4e-3 -0.0231-0.0146-0.0312-0.0195-0.0163 8e-5 -0.0326-6e-5 -0.0488 0-0.42753 0.0135-0.78091-0.17122-1.1172-0.39844-0.0132 0.016-0.0278 0.0308-0.041 0.0469-0.11403 0.14241-0.23277 0.28159-0.35156 0.41992l-0.82032-0.70703c-1e-3 -1.6e-4 -3e-3 1.5e-4 -4e-3 0-9e-3 0.0138-0.0722-7e-3 -0.11328-0.0137-0.24873 0.29877-0.49743 0.59847-0.75782 0.88672-0.0568 0.0571-0.11307 0.11518-0.16992 0.17187l-0.01-0.01v27.725h71.014v-48.328zm6.3555 8.6348c-0.0111 9e-3 -0.0453 0.042-0.0684 0.0664-1e-3 3e-3 -4e-3 5e-3 -6e-3 8e-3 0.0238-0.0238 0.0487-0.0463 0.0723-0.0703 7e-3 -7e-3 7e-3 -8e-3 2e-3 -4e-3zm-1.0879 9.4629c-0.18732 6e-3 -0.10644 5e-3 0.0195 8e-3 -7e-3 -3e-3 -0.0125-5e-3 -0.0195-8e-3zm-1.6758 2.1094c-0.015-0.0126 0.0389 0.0364 0.0586 0.0547 8e-3 5e-3 0.0153 9e-3 0.0234 0.0137-0.0273-0.0229-0.0549-0.0451-0.082-0.0684z" fill="#f00"/>
  </clipPath>
  <clipPath id="clipPath219649">
   <path d="m123.74 449.96v228.54h317.07v-228.54zm22.117 96.342c0.0638 0.037 0.12569 0.0735 0.18945 0.11132 2.3094 0.32693 1.0156 0.2168 3.8945 0.2168h32.271v8.4062h-1.2363v0.98828h-44.131c-1.4216 0-2.8452 0.0563-4.2656 0-2.2755-0.0904-6.4031-0.38541-6.3633-4.1758 0.051-4.8592 2.7844-4.678 5.2988-4.8477v0.34961c0.37061 0.11127 0.80438 0.25717 1.0644 0.26758 1.4206 0.0525 2.8441 0 4.2656 0h8.6309zm-14.342 1.7578v7.3476c7.4665-2.1977 2.0656-5.5237 0-7.3476z" fill="#f00"/>
  </clipPath>
 </defs>
 <g transform="matrix(1.7784 0 0 1.8867 -58.224 -224.61)">
  <path transform="scale(.26458)" d="m360.49 657.36c-4.1008-1.1815-8.5673-7.6732-12.256-17.813-3.933-10.812-12.688-14.044-32.277-11.917l-9.6509 1.0481-5.9603-1.9974c-7.7226-2.588-14.889-3.1801-19.59-1.6185-2.0039 0.66559-4.1465 0.95377-5.3761 0.72309-1.2961-0.24314-4.9518 0.32646-9.9878 1.5562-9.8268 2.3996-20.687 3.3077-29.895 2.4997-8.2142-0.72083-11.998-1.7963-19.478-5.5358-4.9971-2.4982-6.818-3.9277-14.026-11.011-4.5559-4.4769-8.857-8.3079-9.5579-8.5132-0.70091-0.20535-5.5073-0.9643-10.681-1.6866-11.205-1.5642-16.359-3.0387-22.772-6.5142-13.624-7.384-23.005-18.566-27.326-32.573-1.908-6.1851-1.8421-6.5298 1.3605-7.1127 2.653-0.48291 2.6692-0.5011 0.79649-0.89542-4.1987-0.88405 0.79271-1.3244 15.504-1.3678 25.308-0.0746 148.09-0.21465 144.79-2.6533-0.8412-0.62148-121.41-1.6611-137.99-1.8946-19.273-0.2714-28.243-0.75584-28.243-0.75584 0.41605-1.2415 2.2988-4.0737 3.4369-8.4539 2.2684-8.7305 5.0569-13.998 12.426-23.474 3.2596-4.1914 5.0544-7.3534 5.0544-8.9048 0-1.2227 2.496-2.246 5.4781-2.246 4.8481 0 8.4393-2.8738 7.6284-6.1046-0.56992-2.2708-2.872-3.438-7.6627-3.8854l-4.2896-0.40057 0.39274-1.9731c0.216-1.0852 1.5801-4.372 3.0313-7.304 4.7335-9.5635 14.039-17.233 26.279-21.659 7.5526-2.7311 13.439-3.4858 24.374-3.1252 10.432 0.344 13.936 1.191 25.647 6.1998 3.3046 1.4134 6.8554 2.5698 7.8907 2.5698 1.2241 0 4.1368-1.4372 8.3292-4.1098 12.237-7.8007 18.299-9.8223 30.977-10.331 10.329-0.41404 17.686 0.85196 26.151 4.5006 7.4132 3.195 12.849 7.3998 19.648 15.197 5.3281 6.1112 7.7717 8.1235 9.8647 8.1235 0.443 0 3.8512-1.5336 7.5738-3.4081 7.6178-3.8358 11.758-4.8824 19.226-4.8598 10.062 0.0304 16.624 2.8087 23.981 10.154 5.7048 5.6955 8.8361 11.346 12.374 22.327 1.2984 4.0302 2.9516 7.9652 3.6739 8.7444 0.72228 0.77919 3.636 2.1658 6.4749 3.0814 7.4702 2.4092 11.964 5.0216 16.456 9.5667 4.8866 4.9442 8.1686 10.278 10.499 17.063 1.6918 4.9263 1.7768 5.7152 1.6593 15.399-0.11775 9.7074-0.21966 10.458-2.0823 15.336-1.0772 2.8208-3.6998 7.9767-5.828 11.458-4.8588 7.9467-5.0794 9.1434-2.5938 14.067 6.4475 12.772 2.1586 25.595-12.922 38.633-9.3619 8.0939-19.279 13.214-29.788 15.38-4.9067 1.011-17.845 1.3046-20.74 0.4706z" fill="#f60" fill-opacity=".78431" fill-rule="evenodd" stroke="#49447b" stroke-linecap="round" stroke-width="2.9959" style="paint-order:markers fill stroke"/>
  <g transform="matrix(1.1672,0,0,1.2069,-13.743,-32.266)" opacity=".84101">
   <path d="m65.258 146.49a14.713 14.22 0 0 1 13.967-14.804 14.713 14.22 0 0 1 15.422 13.388 14.713 14.22 0 0 1-13.735 15.006 14.713 14.22 0 0 1-15.628-13.162" fill="#f00" fill-rule="evenodd" stroke="#49447b"/>
   <g fill="none" stroke="#000" stroke-width=".26458px">
    <path d="m69.796 155.44c6.575-6.5188 13.15-13.038 16.438-16.297l3.2875-3.2594"/>
    <path d="m94.242 148.7c-5.1136-0.78671-10.228-1.5735-15.342-2.3603"/>
    <path d="m82.778 132.51c-1.2926 4.6083-2.5851 9.2164-3.8776 13.824"/>
   </g>
   <path d="m78.9 146.34c-0.0562 4.496-0.11239 8.9917-0.16859 13.487" fill="#0f0" stroke="#000" stroke-width=".26458px"/>
   <g fill-opacity=".78431" fill-rule="evenodd" stroke-width="0">
    <path transform="scale(.26458)" d="m298.68 578.95c0.19035-13.393 0.46007-24.465 0.59938-24.604 0.13932-0.13932 12.601 1.6449 27.693 3.965l27.44 4.2183-0.85106 2.9214c-0.46809 1.6068-2.205 5.6454-3.8599 8.9747-2.5688 5.168-3.9449 6.9939-9.4092 12.485-5.707 5.7346-7.1252 7.1266-13.091 10.064-7.8362 3.8583-14.366 5.3074-22.789 5.8994l-6.0792 0.42732z" fill="#f0f" style="paint-order:markers fill stroke"/>
    <path transform="scale(.26458)" d="m336.12 558.17c-9.6375-1.5158-21.637-3.391-26.667-4.1671l-9.1439-1.4112 9.4625-9.5141c5.2044-5.2327 13.239-14.063 18.819-19.366l9.7835-9.2989c1.3355-2.2142 4.1999 2.6269 4.1999 2.6269s4.1419 3.7669 7.8749 10.925c2.6321 5.0473 4.635 12.987 5.1142 17.208 0.75444 6.6458-0.23905 15.978-1.4551 15.815-0.25617-0.0342-8.351-1.3024-17.989-2.8181z" fill="#0f0" style="paint-order:markers fill stroke"/>
    <path transform="scale(.26458)" d="m300.44 548.94c0-1.3311 12.091-47.535 12.632-48.117 0.82552-0.88871 7.448 1.2706 13.466 4.2276 6.4018 3.1457 12.195 7.1699 12.195 8.5503 0 0.27578-9.4601 8.4146-19.623 18.312-10.163 9.8972-18.669 17.458-18.669 17.028z" fill="#00f" style="paint-order:markers fill stroke"/>
    <path transform="scale(.26458)" d="m260.02 582.87c-5.4497-6.8375-10.157-15.98-11.587-25.225-0.26591-1.7189-0.0931-2.997-0.77876-3.1783-0.95356-0.25225-0.94834-0.28958 0.0497-0.35574 0.91552-0.0607 0.53195-0.69108 0.53195-3.5224 0-4.4451 1.3007-11.77 3.1-16.623 5.6796-15.32 19.698-27.993 36.191-32.526 3.9597-1.0882 7.4451-1.8336 14.603-1.8729 4.9648-0.0272 10.259 0.80954 10.482 1.0323s-3.3646 12.373-7.5882 26.597l-7.6434 25.741-16.789 16.798c-9.2341 9.239-16.983 16.798-17.22 16.798-0.23692 0-1.7449-1.6487-3.351-3.6638z" fill="#ff0" style="paint-order:markers fill stroke"/>
   </g>
   <path d="m73.645 146.46a5.8164 5.9007 0 0 1 5.5215-6.1429 5.8164 5.9007 0 0 1 6.0965 5.5551 5.8164 5.9007 0 0 1-5.4297 6.2265 5.8164 5.9007 0 0 1-6.1782-5.4614" fill="#fff" fill-rule="evenodd"/>
  </g>
  <g fill-rule="evenodd">
   <path transform="scale(.26458)" d="m295.63 567.47c-2.4458-1.0305-2.7043-1.9727-2.0886-7.6127 0.32011-2.932 0.4017-5.5112 0.18133-5.7316-0.22038-0.22038-4.6632-0.50465-9.873-0.63172l-9.4724-0.23103-0.32006-1.6837c-0.95849-5.0423-1.0491-7.3211-0.42544-10.695 0.7198-3.8938 2.5804-9.3666 3.0311-8.9159 0.25816 0.25817-0.80712 12.169-1.4467 16.175l-0.33061 2.0709h19.64l0.7467-8.1242c1.0679-11.619 1.3048-12.825 2.7919-14.21 1.9786-1.8434 6.3862-1.8788 8.2536-0.0664 1.0435 1.0128 1.0501 1.6781 0.11401 11.513-0.8208 8.6235-0.84717 10.531-0.15172 10.972 0.46298 0.29356 4.4579 0.53813 8.8776 0.54349l8.0358 0.01-0.30452 1.593-0.30451 1.593h-17.578l-0.44752 5.3724c-0.35877 4.3069-0.71763 5.6236-1.8095 6.6389-1.5859 1.4747-5.2539 2.207-7.1188 1.4213z" fill="#f60" fill-opacity=".78431" stroke="#49447b" stroke-linecap="round" stroke-width="2.9959" style="paint-order:markers fill stroke"/>
   <path transform="scale(.26458)" d="m401.49 589.22a34.79 52.597 67.201 0 0-27.088 5.2578 34.79 52.597 67.201 0 0-35.926 31.816l5.6523 5.6504c-2.5773 2.368-5.3856 4.4863-8.1816 6.6035a34.79 52.597 67.201 0 0 1.3516 7.8594l48.949-19.189-48.801 19.596a34.79 52.597 67.201 0 0 60.947 13.021 34.79 52.597 67.201 0 0 36.729-52.012 34.79 52.597 67.201 0 0-33.633-18.604z" clip-path="url(#clipPath31947)" fill="#f00" stroke-width="3.778"/>
   <path transform="scale(.26458)" d="m308.85 537.31a62.513 50.988 0 0 0-61.604 51.562l62.508-0.58008-62.496 1.2109a62.513 50.988 0 0 0 63.787 49.768 62.513 50.988 0 0 0 13.152-1.373l-1.1074-1.416c1.789-1.3982 3.5896-2.7831 5.4023-4.1504 1.8986-1.4526 3.7841-2.9218 5.6777-4.3809 0.84625-0.65204 1.7296-1.2573 2.5352-1.959 0.26146-0.22772 0.49116-0.48909 0.73633-0.73438l5.9902 5.9883a62.513 50.988 0 0 0 28.824-43.848 62.513 50.988 0 0 0-63.406-50.088z" clip-path="url(#clipPath31989)" fill="#f00" stroke-linejoin="round" stroke-width="3.7795" style="paint-order:fill markers stroke"/>
  </g>
  <path transform="scale(.26458)" d="m329.01 631.94c-3.8842 0.78827-11.344 2.0159-12.559 2.0254-0.26382 2e-3 -0.36843 3.4474-0.23047 7.6582 0.38619 11.782 0.60542 12.204 12.305 23.664 5.2368 5.1295 10.79 25.475 10.979 25.475 0.18818 0 1.0186-22.402 1.373-23.641l2.1445-7.4941 2.9629-2.0391c1.6293-1.1221 2.9587-2.1982 2.9512-2.3906-7e-3 -0.19238-1.4161-1.3512-3.1328-2.5762-5.1854-3.7-8.6796-7.9853-10.07-12.35-0.12504-0.3924-0.25053-0.82096-0.375-1.2617-0.37053 0.28105-0.74249 0.5615-1.1113 0.84375-1.7869 1.3478-3.5608 2.7135-5.3242 4.0918l-5.8301-7.459c1.789-1.3982 3.5896-2.7831 5.4023-4.1504 0.17226-0.13179 0.34358-0.26444 0.51563-0.39648z" clip-path="url(#clipPath32009)" fill="#37007b" opacity=".7788" stroke="#0b0f42" stroke-linecap="round" stroke-width="1.8751" style="paint-order:markers fill stroke"/>
  <g transform="scale(.26458)" clip-path="url(#clipPath34483)" stroke-linecap="round">
   <path d="m317.88 639.89c-0.1822 0.74307-0.22851 1.9422-0.22851 3.6719 0 7.6896 0.835 9.5209 7.5371 16.547 6.2816 6.5852 8.6282 10.452 11.734 19.338l1.6094 4.6035 0.4375-7.666c0.49328-8.6449 2.184-16.399 3.9316-18.027 1.1036-1.0281 1.0902-1.0612-1.9062-4.3223-2.4336-2.6486-3.3715-3.2989-4.8301-3.3496-0.34678-0.012-0.61069-0.0296-0.83789-0.0605-0.61654-1e-5 -6.4121-6.6817-6.4121-6.6817-1.1886 0.0326-6.2412 2.535-6.4375 2.3321-0.0928-0.0959-0.14854-0.10177-0.34961-0.3086 0.0797 0.10873-1.7966-2.1711-2.0469-2.6484-0.0436-0.0533-0.43327-0.64343-0.57617-0.90821 0.031 0.0591 0.0232 0.044 0.0684 0.13086-0.36068-0.31691-0.81909-1.0534-1.1172-1.5586-0.075 0.0108-0.34093-0.56075-0.57617-1.0918zm2.707 4.0449c-0.11726-0.14421 0.11728 0.14438 0 0z" color="#000000" fill="#37007b" stroke-width="1.8751" style="-inkscape-stroke:none;paint-order:markers fill stroke"/>
   <path d="m317.37 638.05-0.39648 1.6172c-0.22901 0.93396-0.25586 2.1481-0.25586 3.8945 0 3.8787 0.21155 6.4334 1.3398 8.9102 1.1283 2.4768 3.0913 4.7549 6.457 8.2832 6.2356 6.5369 8.4418 10.173 11.527 19l1.6094 4.6035 1.8203-0.25586 0.4375-7.666c0.24408-4.2775 0.78751-8.3383 1.4766-11.498 0.34453-1.5799 0.72718-2.9352 1.1152-3.9629s0.82245-1.7282 1.043-1.9336c0.27841-0.25938 0.5514-0.47526 0.77539-0.89063s0.22282-1.0526 0.0273-1.4961c-0.39095-0.88702-1.1594-1.6247-2.6582-3.2559-1.2316-1.3403-2.099-2.205-2.9356-2.7852-0.83654-0.58012-1.6894-0.83724-2.5508-0.86719-0.27236-9e-3 -0.44741-0.0252-0.61133-0.043-0.0336-0.025-0.0549-0.0402-0.10937-0.0859-0.18094-0.15201-0.4471-0.40003-0.75195-0.70313-0.60971-0.60619-1.3849-1.4343-2.1426-2.2637-1.5154-1.6588-2.959-3.3242-2.959-3.3242l-0.29101-0.33398-0.44336 0.0117c-0.60756 0.0167-1.1054 0.21854-1.7774 0.46484-0.67195 0.2463-1.4303 0.55949-2.1523 0.86328s-1.4074 0.59865-1.9062 0.79688c-0.13631 0.0542-0.20842 0.0761-0.31055 0.11328-0.0397-0.0479-0.0789-0.0965-0.14062-0.17188-0.16591-0.20261-0.39873-0.4891-0.64063-0.79297-0.22971-0.28857-0.4645-0.59058-0.66015-0.84961 3e-3 -3e-3 0.0488-0.041 0.0488-0.041l-2e-3 -2e-3c-5e-4 -6.3e-4 -1e-3 -1e-3 -2e-3 -2e-3 1e-4 1.3e-4 -3e-3 -3e-3 -4e-3 -4e-3 -9.3e-4 -1e-3 -4e-3 -6e-3 -6e-3 -8e-3 -5e-3 -7e-3 -0.01-0.015-0.0215-0.0293-0.0103-0.0126-0.0172-0.0197-0.0234-0.0274l-4e-3 -4e-3s-7.3e-4 -2e-3 -2e-3 -4e-3c-2.6e-4 -3.3e-4 -2e-3 -2e-3 -2e-3 -2e-3l-2e-3 -2e-3c-5.1e-4 -6.2e-4 -1e-3 -1e-3 -2e-3 -2e-3 -3.8e-4 -4.7e-4 3e-5 -2e-3 -2e-3 -4e-3l-6e-3 -6e-3s-0.0422 0.0349-0.0449 0.0371c-0.17195-0.23556-0.33299-0.47888-0.31641-0.44726l-0.0449-0.084-0.0586-0.0742c0.0926 0.11319 4e-3 6e-3 -0.0371-0.0547-0.041-0.0611-0.0949-0.14532-0.15235-0.23438-0.11245-0.17445-0.2398-0.38168-0.2832-0.46093-9.1e-4 -2e-3 -5e-3 -8e-3 -6e-3 -0.01l-0.9375 0.49805 0.80078-0.62696c-0.11551-0.10149-0.64268-0.84371-0.92969-1.3301l-0.30078-0.50977c-0.073-0.15417-0.1456-0.30602-0.22461-0.48437l-0.0703-0.16016zm1.2676 4.7559c0.0283 0.0336 0.0428 0.0666 0.0723 0.0996 7e-3 0.0142 0.0113 0.0225 0.0352 0.0684l8e-3 -6e-3c0.0914 0.1589 0.19038 0.32327 0.29297 0.48242 0.0633 0.0982 0.12304 0.18889 0.17188 0.26172 0.0488 0.0728 0.0262 0.0594 0.14062 0.19922l-0.10351-0.15821c0.14375 0.27417 0.29896 0.467 0.51757 0.75782 0.21862 0.29081 0.47807 0.62338 0.72657 0.93554 0.2485 0.31217 0.48495 0.60331 0.65625 0.8125 0.0857 0.1046 0.1555 0.18909 0.20312 0.2461 0.0238 0.0285 0.0394 0.0482 0.0586 0.0703 5e-3 6e-3 0.0338 0.0344 0.043 0.0449 7e-3 8e-3 -0.0131-8e-3 0.0332 0.0352 0.0132 0.0123 0.0722 0.0605 0.0723 0.0605l6e-3 2e-3c0.11345 0.10162 0.25291 0.22612 0.23633 0.20898 0.26446 0.27342 0.50298 0.28268 0.63281 0.29297 0.12984 0.0103 0.20477 2.1e-4 0.27149-0.01 0.13343-0.0199 0.22641-0.0481 0.33008-0.0801 0.20733-0.0639 0.4366-0.15036 0.70703-0.25782 0.54086-0.21491 1.2291-0.51002 1.9434-0.81054 0.71425-0.30053 1.4545-0.6063 2.0703-0.83203 0.43147-0.15816 0.6235-0.19353 0.82812-0.24415 0.30383 0.34904 1.2704 1.4619 2.6113 2.9297 0.76828 0.84101 1.5547 1.6835 2.2051 2.3301 0.32518 0.32331 0.61512 0.59715 0.86914 0.81055 0.12701 0.1067 0.2421 0.19798 0.375 0.2832 0.1329 0.0852 0.21781 0.22265 0.67969 0.22266l-0.12696-8e-3c0.27616 0.0376 0.56963 0.0558 0.93165 0.0684 0.59716 0.0208 0.94338 0.11335 1.5488 0.53321 0.60545 0.41986 1.4229 1.2054 2.625 2.5137 1.4647 1.594 2.1566 2.4538 2.2715 2.6816-0.0428 0.0471-0.10089 0.12135-0.31446 0.32031-0.65331 0.60866-1.0856 1.4882-1.5215 2.6426s-0.83315 2.5837-1.1914 4.2266c-0.71652 3.2857-1.2664 7.4237-1.5156 11.791l-0.16992 2.9707-0.0566-0.16406c-3.1267-8.9446-5.6137-13.042-11.941-19.676-3.3364-3.4976-5.1407-5.6498-6.1055-7.7676s-1.1719-4.3219-1.1719-8.1328c0-0.3754 0.0385-0.4324 0.0449-0.75586zm3.584 2.2305c-4e-5 -1e-5 0.48057 0.18757 0.48047 0.1875-4e-5 -3e-5 0.0169 0.015 0.0293 0.0254-0.0779 0.0282-0.19483 0.0733-0.24219 0.0879-0.0556 0.0171-0.092 0.0231-0.0547 0.0176 0.0186-3e-3 0.0532-0.0118 0.15235-4e-3 0.0191 2e-3 0.0822 0.0497 0.10937 0.0527l-1.3203 1.1172c-6e-3 -8e-3 -0.0628-0.0982-0.0625-0.0977 8e-5 1.4e-4 -0.084-0.20514-0.084-0.20507 1e-5 6e-5 0.99222-1.1816 0.99218-1.1816z" color="#000000" fill="#0f0442" style="-inkscape-stroke:none;paint-order:markers fill stroke"/>
  </g>
  <path d="m84.678 170.34a1.5942 1.9656 0 0 1 1.571-1.9877 1.5942 1.9656 0 0 1 1.617 1.9308 1.5942 1.9656 0 0 1-1.561 1.9996 1.5942 1.9656 0 0 1-1.6267-1.9185l1.5937-0.0467z" fill-opacity="0"/>
  <path transform="matrix(.26458 0 0 .26458 -3.6163e-6 3.15e-7)" d="m365.25 596.22a35.507 24.164 0 0 0-34.836 24.436l13.07-0.10156c-0.11339-0.0616-0.2249-0.12645-0.33398-0.19726-0.30014-0.19484-0.45706-0.34915-0.71875-0.58008-0.079-0.0779-0.15738-0.15614-0.23633-0.23438l1.9414-1.9394c0.0431 0.0438 0.0877 0.0886 0.13085 0.13281 0.14403 0.13463 0.30539 0.31246 0.48243 0.4043 0.40187 0.20897 0.85742 0.31958 1.2871 0.44922 1.1378 0.2942 2.3029 0.45764 3.4551 0.68554 0.86953 0.18142 0.32648 0.0575 0.98829 0.22266 0.17281 0.0431 0.42441 0.12954 0.60742 0.14844 0.053 8e-3 0.10682 0 0.16015 0v0.84765l14.672-0.11328-14.672 0.41211v1.5977c-0.78794-0.0142-1.5439-0.27202-2.3105-0.42774-1.1958-0.2248-2.3975-0.41657-3.5781-0.71289-0.29693-0.0786-0.59312-0.16534-0.88281-0.26562l-14.033 0.39453a35.507 24.164 0 0 0 36.676 23.152 35.507 24.164 0 0 0 34.295-24.787 35.507 24.164 0 0 0-36.164-23.523z" clip-path="url(#clipPath168721)" fill-opacity="0" stroke-width="3.7795"/>
  <g fill-rule="evenodd">
   <g stroke="#31447b" stroke-linecap="round">
    <path transform="scale(.26458)" d="m337.22 676.17c-0.25466-0.40793-1.1887-2.2532-2.0756-4.1006-2.198-4.5781-3.8834-6.9261-9.4088-13.107-2.6007-2.9094-5.125-6.1799-5.6096-7.2677-1.1985-2.6902 22.896-2.9955 20.137-0.24723l-1.7375 1.7306 3.5402 3.6524-1.0426 2.4235c-1.3765 3.1997-2.0351 6.186-2.7492 12.466-0.4103 3.608-0.73165 4.9656-1.0534 4.4501z" fill="#c8b7b7" stroke-width="1.6763" style="paint-order:markers fill stroke"/>
    <path transform="scale(.26458)" d="m334.86 672.94c-2.4037-4.78-4.6045-7.8773-10.525-14.812-2.0897-2.4476-4.2305-5.4029-4.7574-6.5673-1.363-3.0122-8.2565-16.799-17.091-17.07-11.107-0.34054-17.71-1.2242-23.24-3.1099-4.9012-1.6712-6.5343-1.6144-13.525 0.4705-8.1882 2.4421-12.261 2.9657-22.941 2.9492-11.128-0.0172-15.975-0.77882-23.121-3.6331-10.415-4.1598-17.354-9.4789-25.019-19.178-2.3824-3.0148-3.7632-3.5477-10.61-4.0951-14.211-1.1362-22.534-3.7206-32.102-9.969-14.476-9.4533-23.125-22.472-26.345-39.657-0.44362-2.3674-0.68546-4.6201-0.53741-5.0059 0.16857-0.4393 0.15594-1.6698-0.0428-1.8686-0.65354-0.65354 1.3564-10.838 3.2441-16.439 2.2278-6.6096 5.1143-11.803 9.5561-17.193 5.8282-7.0723 6.7956-8.6738 7.2015-11.923l0.36771-2.9438 1.9775-0.32607c1.0876-0.17933 3.7019-0.48258 5.8095-0.67388s3.8321-0.52475 3.8321-0.74102c0-0.21626-2.392-0.54549-5.3154-0.73161-2.9235-0.18611-5.7048-0.45019-6.1808-0.58684-1.2216-0.35074-1.1061-2.3289 0.4205-7.2023 4.2435-13.547 12.252-22.684 25.662-29.279 10.312-5.0715 16.957-6.4879 30.162-6.4298 8.8318 0.0389 9.7355 0.13179 15.081 1.5503 5.1254 1.3601 13.857 4.7655 19.001 7.4106l1.9422 0.99867 4.925-3.6653c8.4164-6.2637 18.05-10.26 27.889-11.57 5.3821-0.71643 17.374-0.31234 22.142 0.74613 15.004 3.3307 25.816 10.292 35.195 22.66 2.0108 2.6515 3.8858 4.821 4.1668 4.821s1.4913-0.67451 2.6895-1.4989c4.4094-3.0337 11.243-5.942 15.845-6.7433 6.1127-1.0644 15.565-0.67489 19.97 0.8229 6.8427 2.3265 12.332 5.8774 17.307 11.196 6.2381 6.6686 9.6942 13.431 12.128 23.729 1.4882 6.2982 2.1958 7.6007 4.129 7.6007 3.1203 0 10.684 3.0463 15.48 6.235 9.1445 6.0792 15.395 15.405 18.522 27.635 1.2308 4.8134 1.3878 6.2922 1.365 12.856-0.0222 6.3852-0.20572 8.0894-1.3193 12.251-1.5851 5.9243-4.855 12.956-8.8435 19.016l-3.0056 4.5671 2.359 4.6586c2.2505 4.4443 2.3701 4.8878 2.599 9.6414 0.30698 6.3752-0.40862 10.019-3.0696 15.628-2.6345 5.554-5.5412 9.4157-10.917 14.505-14.159 13.403-35.424 21.361-53.931 20.183-7.5134-0.47804-16.778-3.9897-21.164-8.0221-2.4057-2.2116-3.4337-1.5362-1.1019 0.72395l1.6784 1.6268-1.15 2.8302c-1.0928 2.6894-2.2652 8.1283-2.9592 13.729-0.17433 1.4067-0.60703 2.9544-0.96154 3.4392-0.57635 0.7882-0.88027 0.41279-2.8713-3.5466zm3.1036-3.4387c0.34191-2.5833 1.21-6.4506 1.9292-8.5939l1.3075-3.897-3.1734-3.6711-18.261-7.6456c0.13164 2.8237 0.50744 5.0806 1.0002 6.0066 0.43412 0.81585 3.2587 4.376 6.2768 7.9114 3.6328 4.2554 6.1967 7.806 7.586 10.505 1.1542 2.2424 2.2368 4.0781 2.4058 4.0793 0.16898 9.8e-4 0.58697-2.1114 0.92888-4.6947zm44.869-10.332c20.997-5.272 39.261-19.047 45.319-34.181 3.5266-8.8094 2.7946-17.229-2.221-25.544l-1.0979-1.8201 3.2716-4.8676c3.8667-5.7529 6.6842-11.572 8.5702-17.701 1.2753-4.1445 1.3698-5.0537 1.3869-13.348 0.0169-8.184-0.0889-9.2853-1.3142-13.685-4.6058-16.537-15.211-27.509-30.268-31.313-3.3734-0.85233-4.7067-1.4312-5.3842-2.3375-0.49526-0.66256-1.5724-3.9674-2.3937-7.344-2.4658-10.138-6.4457-17.47-13.024-23.993-8.4834-8.4116-18.865-11.934-31.329-10.629-7.3759 0.7723-12.204 2.5372-18.651 6.8178-1.5516 1.0302-3.043 1.6537-3.7205 1.5555-0.66631-0.0966-2.0092-1.2811-3.2688-2.8834-5.293-6.7331-8.2805-10.056-11.216-12.476-16.568-13.659-41.51-16.985-62.263-8.3038-3.3245 1.3907-10.835 6.0137-15.938 9.8104l-1.5106 1.1239-4.4229-2.0505c-14.717-6.8229-24.203-8.8141-37.47-7.8649-9.7005 0.69404-16.03 2.3954-24.311 6.5353-10.756 5.3773-17.418 11.974-22.03 21.816-1.9294 4.1173-4.1935 11.583-3.671 12.106 0.14279 0.14279 2.7576 0.41852 5.8106 0.61273s5.9403 0.50942 6.4163 0.70047c1.1192 0.44926 1.1192 2.0736 0 2.4224-1.4871 0.46343-7.6894 1.2603-9.8892 1.2706l-2.1015 0.01-0.0109 2.1015c-0.0152 2.9362-1.3101 5.3963-5.4005 10.26-8.1369 9.6752-11.447 21.512-13.61 33.556-0.50806 2.8286 9.3743 1.4458 21.658 1.6194s41.275-1.9051 43.383-1.8748c1.436 0.0206 63.11-1.6833 123.86-0.80057 59.636 0.86657 113.52 7.6865 113.52 7.9302 0 0.76553-303.51-0.82616-301.7 6.3319 4.1439 16.408 15.205 29.892 30.915 37.686 7.6884 3.8144 12.923 5.1204 25.02 6.2429 3.9705 0.36843 7.6874 0.92048 8.2597 1.2268 0.57235 0.30632 2.9252 2.7458 5.2285 5.4211 6.396 7.4289 10.73 10.945 18.003 14.605 9.2624 4.661 16.848 6.0204 31.157 5.5842 9.79-0.29848 10.825-0.45894 20.045-3.1087 6.8537-1.9695 7.7857-2.0225 11.451-0.65129 4.7942 1.7938 11.562 2.8839 21.638 3.4854 5.3737 0.32081 44.196 20.61 44.196 20.61 2.4567 2.1276 7.8336 4.6988 12.538 5.9957 3.2802 0.90425 4.7361 0.99855 12.609 0.81674 7.4589-0.17226 9.7206-0.41151 13.966-1.4774z" fill="#31447b" stroke-width="1.6763" style="paint-order:markers fill stroke"/>
    <path transform="scale(.26458)" d="m268.49 451.4c-10.542 1.9523-18.597 5.6884-29.193 13.545l-1.5039 1.1152-4.1816-1.9238c-5.6284-2.5875-12.832-5.2417-17.854-6.5781-3.5857-0.95433-5.4044-1.0995-13.773-1.1113-14.281-0.0202-19.408 1.0272-29.951 6.1191-13.921 6.7234-22.002 15.662-26.443 29.254-2.295 7.0231-1.9485 8.7916 1.7324 8.8555 3.8008 0.066 4.2367 0.78067 0.70703 1.1602l-3.2734 0.35351-0.32031 2.7227c-0.41941 3.5685-1.3508 5.2487-6.6426 11.975-6.874 8.7368-10.151 15.822-12.469 26.967-2.1168 10.179 0.31638 22.811 6.5312 33.922 7.2937 13.039 22.442 24.655 37 28.369 2.5836 0.65906 8.036 1.5686 12.115 2.0215 10.798 1.1987 10.477 1.0664 14.742 6.0898 6.4476 7.5945 11.557 11.674 19.375 15.469 7.368 3.5769 12.421 4.8619 21.354 5.4297 11.158 0.70929 18.85 0.0286 28.893-2.5566l8.0996-2.084 4.2031 1.1211c7.1682 1.9146 9.9743 2.4343 16.09 2.9707 7.5982 0.66649 23.868 12.393 24.709 15.225 0.77241 2.601 26.171 6.9126 29.328 8.5 6.8771 3.4577 10.474 4.2316 19.617 4.2246 11.763-9e-3 21.294-2.2907 32.045-7.6699 13.971-6.9903 24.009-16.288 29.068-26.922 2.899-6.0934 3.6155-9.5934 3.3106-16.195-0.22294-4.8262-0.34255-5.2796-2.5059-9.5664l-2.2715-4.5 2.5176-3.9043c3.4608-5.3713 7.4879-13.901 9.082-19.234 1.2154-4.0662 1.3319-5.1748 1.3379-12.855 6e-3 -7.5005-0.13087-8.9264-1.2793-13.24-1.5219-5.7166-4.901-13.08-7.9824-17.398-3.0319-4.2488-8.2858-8.982-12.887-11.609-4.2656-2.4359-10.937-4.9746-13.078-4.9746-0.76285 0-1.6134-0.27725-1.8906-0.61719-0.27717-0.33994-1.413-3.7944-2.5234-7.6758s-2.7971-8.7407-3.748-10.799c-4.9049-10.616-14.327-19.363-24.896-23.115-4.1574-1.4758-4.5739-1.5282-12.703-1.5312-6.783-3e-3 -8.9791 0.1728-11.373 0.91016-3.7562 1.1569-9.1756 3.6467-12.336 5.666-1.345 0.85941-2.7066 1.5625-3.0273 1.5625s-2.0026-1.8356-3.7363-4.0781c-9.5628-12.37-20.19-19.307-35.045-22.877-2.5739-0.6186-22.236-1.0353-24.969-0.52925zm10.877 1.7715c10.464 0 18.936 1.9202 27.689 6.2773 7.7448 3.8549 11.85 7.4271 20.627 17.951 3.8071 4.5648 4.3307 4.6573 9.3672 1.6602 7.8863-4.693 13.077-6.1155 22.275-6.1035 6.7337 9e-3 10.639 0.85188 15.967 3.4414 11.013 5.3531 18.658 15.603 22.811 30.582 1.0044 3.6232 2.2464 7.1227 2.7598 7.7754 0.61218 0.77825 2.1598 1.5402 4.4942 2.2148 8.5343 2.4663 13.17 4.9785 18.465 10.008 6.1138 5.8075 10.236 13.11 12.578 22.279 0.91739 3.5917 1.0092 5.1187 0.83399 13.684-0.19338 9.4514-0.2277 9.7316-1.8281 14.094-2.123 5.7866-4.1845 9.8222-7.8965 15.465-1.6599 2.5232-3.0176 4.8077-3.0176 5.0762 0 0.26845 0.65815 1.6542 1.4629 3.0801 7.2753 12.891 3.7123 27.297-9.9238 40.125-4.2088 3.9594-23.234 22.399-50.61 19.608-4.0412-0.41196-12.016 2.7953-19.641-19.801-6.4435-19.094-35.226-7.1505-42.168-9.917-19.691-7.8465-24.095-1.5925-24.85-1.7074-2.7641-0.42083 2.1864 1.126 0.0855 0.45923-2.1009-0.66678-4.4013-1.211-5.1113-1.209-0.71005 2e-3 -4.6277 0.89717-8.707 1.9883-6.3481 1.698-8.5698 2.052-15.416 2.459-9.3891 0.55824-18.331 0.0136-24.1-1.4688-4.7835-1.2293-13.161-5.1685-17.348-8.1562-1.7067-1.2179-5.8548-5.1352-9.2168-8.7051s-6.4859-6.6903-6.9434-6.9356-4.673-0.89487-9.3672-1.4434c-11.795-1.3781-16.049-2.4715-23.051-5.9238-7.3157-3.6071-12.506-7.4283-17.928-13.199-7.5486-8.035-14.404-35.075-14.071-37.564 0.65425-4.8831 2.567-15.249 4.3346-18.959 2.1163-4.4424 5.2078-9.1126 9.5977-14.506 3.6694-4.508 5.0565-7.1829 5.0723-9.7734l0.0117-1.7832 4.3262-0.3418c2.3796-0.1874-4.5418 0.63061-3.6159 0.43321 2.0554-0.43821 47.166-2.8204 46.383-4.066-0.55259-0.88008-40.343-2.3903-47.153-3.0094-3.9636-0.36032-0.53628 0.87276 1.4696-5.057 4.3362-12.819 11.304-20.649 24.055-27.035 8.8192-4.4174 15.402-5.9982 26.742-6.418 11.868-0.4393 19.323 1.1676 32.529 7.0117 3.4748 1.5377 6.4686 2.7284 6.6523 2.6445s2.6699-1.7284 5.5254-3.6543c7.2127-4.8647 10.905-6.8323 16.072-8.5605 6.3508-2.1242 12.216-3.0195 19.775-3.0195z" clip-path="url(#clipPath219649)" fill="#000080" stroke-width="4.7017" style="paint-order:markers fill stroke"/>
   </g>
  </g>
  <path transform="matrix(1.08 -.003246 .028115 .84057 -12.173 23.01)" d="m43.23 136.46-0.16433 1.5756h1.0697l-0.82372 8.0192c1.2272-0.0592 2.4554-0.094 3.683-0.1447l0.7891-7.7566h1.5911c0.98757 0 1.4816 0.49407 1.4816 1.4583 0 0.11759-0.02739 0.21158-0.02739 0.3762l-0.59945 5.7981c1.2303-0.0426 2.4601-0.0973 3.6907-0.12971l0.7767-7.5029h1.5911c0.96014 0 1.4263 0.4703 1.4263 1.4345 0 0.16462-0.02739 0.23535-0.02739 0.39997l-0.55397 5.5966c1.2273-0.0227 2.4549-0.0361 3.6825-0.047l0.51986-5.3614v-0.35294c0-2.0461-2.0025-3.3631-4.8829-3.3631zm38.118 0c-2.8804 0-5.1022 1.5522-5.3216 3.6453l-0.54622 5.4038c1.2142 0.0186 2.4282 0.037 3.6422 0.0672l0.6072-5.9175c0.0823-0.87017 1.0428-1.6232 2.0578-1.6232 0.96014 0 1.7007 0.6822 1.7007 1.5053v0.11783l-0.60255 6.0182c0.54086 0.015 1.0818 0.0294 1.6226 0.0439 0.67065 0.018 1.3411 0.0439 2.0118 0.062l0.58911-5.6777c0-0.11759 0.02739-0.23484 0.02739-0.35244 0-1.905-1.9201-3.2928-4.6085-3.2928zm-18.578 5.3857-0.16485 1.5756h0.98754l-0.21239 2.0929c1.2275-5e-3 2.455-0.0116 3.6825-0.0207l0.37052-3.6478zm7.3794 0-0.37465 3.6323c0.47198-2e-3 0.94397-7e-3 1.4159-8e-3 0.7548-5.3e-4 1.5097 3e-3 2.2645 9e-3l0.37-3.6334zm18.944 0-0.13746 1.5756h1.0428l-0.25218 2.4608c1.2191 0.0359 2.4383 0.0691 3.6571 0.11214l0.27078-2.573h1.4816c0.82298 0 1.234 0.37629 1.234 1.1524v0.21187l-0.13384 1.3172c1.223 0.0538 2.4455 0.11968 3.668 0.18501l0.11472-1.1028v-0.30541c0-1.7874-2.03-3.0339-4.499-3.0339zm17.31 0c-2.6335 0-4.6912 1.2463-4.6912 3.1982 0 0.47967 0.11885 0.92831 0.34778 1.3519 0.5351 0.029 1.0704 0.053 1.6056 0.0811 2.4661 0.12968 3.0288 0.16184 4.1264 0.22066l-1.7177-1.818c-0.24689-0.25869-0.35657-0.49371-0.35657-0.7524 0-0.47036 0.46622-0.7059 1.3715-0.7059h2.1673l0.16433-1.5756zm-33.174 5.8529c-1.2278-8e-3 -2.4557-5e-3 -3.6835 5.3e-4l-0.46612 4.5181h-1.2066c-0.90528 0-1.3441-0.4233-1.3441-1.2464v-0.21188l0.30954-3.0494c-1.2278 9e-3 -2.4557 0.0189-3.6835 0.0238l-0.24753 2.4381c-0.02743 0.0706-0.02739 0.18781-0.02739 0.35244 0 1.9755 2.03 3.269 4.8281 3.269h1.2072l-0.21962 2.1875c-0.0823 0.9172-0.60316 1.3875-1.5084 1.3875h-3.484l-0.16485 1.5756h3.7036c2.661 0 4.9652-1.5522 5.1847-3.3631zm2.0273 0.0248-0.24495 2.4241c-0.02743 0.0705-0.02791 0.18832-0.02791 0.35295 0 1.9285 1.9207 3.2923 4.5816 3.2923h1.2066c2.853 0 5.0753-1.5051 5.2948-3.6453l0.22324-2.1523c-0.61675-0.0166-1.2333-0.0404-1.85-0.0568-0.59203-0.0158-1.1841-0.0316-1.7761-0.0481l-0.27337 2.7275c-0.0823 0.9172-0.98737 1.6226-2.0572 1.6226-1.015 0-1.7554-0.63466-1.7554-1.4578 0-0.0705 0.02739-0.0943 0.02739-0.16484l0.28991-2.8272c-1.2127-0.0299-2.4256-0.0493-3.6385-0.0672zm-14.656 0.0341c-1.2292 0.0117-2.4582 0.0271-3.6871 0.0507l-0.35037 3.5388c0 0.0941-0.0279 0.16483-0.0279 0.2589 0 1.4816 1.1248 2.187 2.8531 2.187h1.509l0.16485-1.5756c-0.54865-0.0235-0.82321-0.25879-0.82321-0.72915zm-6.9097 0.12248c-1.2307 0.0332-2.4604 0.091-3.6907 0.13435l-0.59738 5.7785h3.6763zm35.829 0.21445-1.1121 10.849h3.6757l0.52142-5.2446c0.27433 0.0706 0.65808 0.0941 1.1519 0.0941h0.57619c2.6061 0 4.9378-1.3874 5.1573-3.3393l0.20361-1.956c-1.2205-0.065-2.4408-0.13185-3.6618-0.185l-0.21756 2.141c-0.10973 1.1289-0.82296 1.7637-1.6185 1.7637-0.74068 0-1.2893-0.56462-1.2893-1.5053 0-0.0941 0.02739-0.16432 0.02739-0.25839l0.23668-2.2474c-1.2168-0.0426-2.4339-0.0761-3.6509-0.11162zm-42.751 0.0439c-1.2285 0.0515-2.4574 0.0904-3.6856 0.15038l-0.56534 5.5041h3.6757zm57.451 0.58963 0.75655 0.73742c0.41148 0.39981 0.60358 0.84686 0.60358 1.3643 0 0.9172-0.57594 1.3875-1.7007 1.3875h-2.9352l-0.16484 1.5756h4.362c2.7707 0 4.8555-1.3876 4.8555-3.3631 0-0.47227-0.11099-0.9444-0.32918-1.4102-0.76273-0.0444-1.7514-0.0974-3.2961-0.17861-0.62041-0.0326-1.3305-0.0698-2.1517-0.11284z" clip-path="url(#clipPath168711)" fill="#fff" stroke="#49447b" stroke-width="1.2563" style="mix-blend-mode:normal"/>
  <g fill-opacity="0">
   <path transform="scale(.26458)" d="m139.3 551.79c0.13769-0.0551 0.30221-0.0483 0.36559 0.0151 0.0634 0.0634-0.0493 0.10846-0.25035 0.10018-0.22221-9e-3 -0.2674-0.0543-0.11524-0.11524z" opacity=".82719" style="paint-order:markers fill stroke"/>
   <path transform="scale(.26458)" d="m138.16 551.79c0.13769-0.0551 0.30221-0.0483 0.36559 0.0151 0.0634 0.0634-0.0493 0.10846-0.25035 0.10018-0.22221-9e-3 -0.2674-0.0543-0.11524-0.11524z" opacity=".82719" style="paint-order:markers fill stroke"/>
   <path transform="scale(.26458)" d="m135.33 552.3c0-0.36965 0.12717-0.38148 4.101-0.38148 2.2555 0 4.101 0.0359 4.101 0.0798s-0.0521 0.21554-0.11578 0.38148c-0.10047 0.26181-0.64296 0.30172-4.101 0.30172-3.858 0-3.9852-0.0122-3.9852-0.38149z" opacity=".99078" style="paint-order:markers fill stroke"/>
   <path transform="scale(.26458)" d="m137.59 551.79c0.13769-0.0551 0.30221-0.0483 0.36559 0.0151 0.0634 0.0634-0.0493 0.10846-0.25035 0.10018-0.22221-9e-3 -0.2674-0.0543-0.11524-0.11524z" opacity=".99078" style="paint-order:markers fill stroke"/>
   <path transform="scale(.26458)" d="m149.26 547.89c0-0.43939 2.2326-23.402 2.3675-24.35l0.0882-0.61992h-4.3631v-0.96442l28.564 0.0645c28.364 0.0641 28.576 0.0674 30.343 0.47164 6.5608 1.5011 9.905 4.021 10.269 7.7385 0.0532 0.5429-0.21115 4.3199-0.58749 8.3934-0.37635 4.0735-0.68426 7.5283-0.68426 7.6774 0 0.22721-0.78998 0.27107-4.8819 0.27107h-4.8818l0.1156-0.90603c0.43909-3.4416 1.4616-15.604 1.3862-16.488-0.18323-2.1494-1.4832-4.0566-3.4438-5.0526-1.6788-0.85291-3.0163-1.0077-8.7364-1.0113l-5.278-3e-3 -0.10108 0.52454c-0.0556 0.2885-0.59037 5.5888-1.1884 11.778s-1.1619 11.337-1.2531 11.439c-0.16371 0.18271-9.3148 0.54514-9.4843 0.37563-0.048-0.048 0.28217-3.8286 0.73383-8.4012 0.5062-5.1249 0.78354-8.7828 0.72305-9.5364-0.17948-2.236-1.4398-4.0477-3.5143-5.052-1.8304-0.88609-2.5562-0.97813-8.4812-1.0756l-5.6544-0.093-0.11126 0.73567c-0.0612 0.40463-0.59015 5.7999-1.1754 11.99-0.5853 6.1896-1.1017 11.438-1.1475 11.663-0.079 0.38809-0.2209 0.41557-2.7073 0.52402-7.458 0.32529-6.9157 0.33259-6.9157-0.0931z" opacity=".99078" style="paint-order:markers fill stroke"/>
   <path transform="scale(.26458)" d="m349.56 638.63c-4.2754-10.785-12.693-14.344-30.451-12.872-1.2589 0.10436-4.6139 0.44122-7.4556 0.74858l-5.1666 0.55884-3.4168-1.1484c-6.7569-2.271-10.28-3.0181-14.979-3.1762-3.559-0.11976-5.4026 0.0764-7.8482 0.83515-1.321 0.40983-2.1331 0.51162-5.0999 0.63922-3.9057 0.16799-4.0646 0.19255-9.9736 1.5413-11.5 2.6249-20.999 3.3454-30.925 2.3458-6.8789-0.69276-10.362-1.7139-16.879-4.9478-5.2135-2.5872-6.9469-3.9167-13.946-10.697-4.6108-4.4665-7.6828-7.2679-9.1911-8.3816-1.2525-0.92483-1.4543-0.97112-9.1159-2.0903-15.204-2.2211-19.495-3.4336-26.616-7.5217-13.446-7.7196-22.339-19.204-26.139-33.757-0.36341-1.3918-0.41604-1.8318-0.2327-1.9451 0.13032-0.0805 0.84002-0.24719 1.5771-0.37032 1.6589-0.27713 2.7269-0.79485 2.8775-1.395 0.13743-0.54757 0.98829-0.68597 4.2326-0.68848l2.1459-2e-3 -1.6e-4 0.52455c-9e-5 0.2885-0.21461 2.6275-0.4767 5.1978-0.48526 4.7587-0.59318 8.7283-0.35138 12.925l0.12375 2.1476 19.105-0.0988 1.0042-10.379c0.55228-5.7085 1.0461-10.421 1.0974-10.472 0.11276-0.11276 7.5787-0.43918 7.682-0.33587 0.0651 0.0651-1.682 18.107-1.9762 20.407l-0.11981 0.93685 10.153-0.11593c5.5842-0.0638 10.179-0.142 10.21-0.17388 0.0316-0.0319 0.53658-4.9505 1.1223-10.93s1.1078-11.118 1.1604-11.418l0.0955-0.54556-11.539 0.28103 0.52841-0.53086c0.58142-0.58411 0.79968-1.1958 0.66957-1.8764l-0.085-0.44452 3.2584-0.12361c1.7921-0.068 4.1811-0.12386 5.3088-0.12418 1.1278-3.8e-4 2.0566-0.0221 2.0641-0.0483 8e-3 -0.0262 0.54616-5.3694 1.197-11.874l1.1834-11.826h6.1815l0.51179 0.51216c0.39559 0.39588 0.52911 0.74232 0.58813 1.526 0.042 0.55758-0.35931 5.5977-0.89178 11.2s-0.94556 10.207-0.91797 10.231c0.0841 0.075 20.183-0.23969 20.26-0.31718 0.0395-0.0398 0.47528-4.4499 0.96846-9.8002 0.7576-8.2189 0.86693-9.935 0.70483-11.063-0.73979-5.1484-4.8356-8.7401-12.221-10.716l-1.8417-0.49284-31.425 0.13826c-17.284 0.076-31.425 0.0851-31.425 0.0202 0-0.065 0.50361-0.781 1.1191-1.5912 2.2495-2.961 3.6201-5.3605 4.1493-7.264 0.29664-1.067 0.37871-1.1761 1.1024-1.4661 0.4366-0.17495 1.7507-0.38228 2.9755-0.46945 2.5855-0.184 3.6892-0.42767 5.2586-1.161 4.1244-1.9271 5.4041-6.5108 2.5983-9.3072-1.5336-1.5284-3.7338-2.2901-7.8367-2.713-1.7217-0.17744-2.3091-0.30497-2.3091-0.50132 0-0.36871 1.5121-4.0201 2.64-6.3753 4.6778-9.7671 14.13-17.427 26.882-21.785 6.6172-2.2615 12.597-2.952 22.466-2.5945 10.135 0.36713 13.209 1.0708 23.546 5.3903 4.3842 1.832 8.036 3.1032 9.4568 3.2916 0.75566 0.10025 1.2595 0.022 2.47-0.38375 1.8312-0.61378 3.3012-1.4035 7.8152-4.1987 12.891-7.9826 19.094-9.8242 33.094-9.8254 9.4317-7.7e-4 16.255 1.547 24.32 5.5164 4.7319 2.3291 7.7766 4.5033 11.899 8.4974 2.0596 1.9955 8.3676 8.8748 8.1378 8.8748-0.0594 0-1.0728-0.33216-2.2519-0.73813-6.8527-2.3594-13.802-3.4745-21.594-3.465-6.3474 8e-3 -10.386 0.48596-16.261 1.9252-22.09 5.4116-40.12 22.02-47.419 43.678-1.2486 3.7048-2.1279 7.3712-2.8904 12.052l-0.11606 0.71246-11.331 0.101-0.41764 4.101c-0.22971 2.2555-0.42323 4.2941-0.43005 4.5302-0.0121 0.4186 0.0369 0.42917 1.9904 0.42917 1.1015 0 2.0003 0.0644 1.9972 0.14306-3e-3 0.0787-0.13008 1.3447-0.28216 2.8135-0.15207 1.4687-0.27829 2.9064-0.28047 3.195l-4e-3 0.52454h8.5601l0.11933 0.90603c0.0656 0.49832 0.16354 1.1421 0.21758 1.4306l0.0983 0.52454h-4.6884c-2.5786 0-4.6884 0.0644-4.6884 0.14306-5e-5 0.0787-0.2146 2.3318-0.47677 5.007-0.26218 2.6752-0.47571 5.2931-0.47451 5.8177 0.01 4.3164 3.7114 8.2514 9.8285 10.448 1.7251 0.61957 5.3236 1.4259 7.0976 1.5904 0.76059 0.0705 1.3829 0.18825 1.3829 0.26162 0 0.21204 2.591 4.2905 3.6154 5.6909 0.78839 1.0778 0.88274 1.2937 0.61329 1.4034-0.17513 0.0713-4.3741 0.13568-9.331 0.14305-8.5344 0.0127-9.0126 0.0316-9.0126 0.35549 0 0.18815-0.17167 2.0084-0.38148 4.045-0.20982 2.0366-0.38149 3.7742-0.38149 3.8613s6.0934 0.14862 13.541 0.13669l13.541-0.0217 1.4801 1.3427c9.0959 8.2515 21.158 14.065 33.464 16.128 4.4633 0.74822 7.3004 0.92762 12.896 0.81544 5.3973-0.10822 7.9166-0.38338 12.607-1.377 11.37-2.4086 22.305-8.0194 30.861-15.836 1.4989-1.3693 1.5963-1.4248 2.5007-1.4248h0.94101l0.11176-1.0828c0.0897-0.86938 0.22658-1.1976 0.69428-1.6653l0.58253-0.58253v26.271c0 14.449-0.0231 26.271-0.0514 26.271-0.0282 0-0.50762-1.1511-1.0653-2.558zm-128.13-62.629c0.0622-0.49832 0.24082-2.2365 0.3969-3.8626 0.15609-1.6261 0.32884-3.2784 0.3839-3.6718l0.10012-0.71529h-1.7249c-1.3278 0-1.7493-0.0634-1.8306-0.2755-0.0582-0.15152 0.15973-3.1772 0.48417-6.7237 0.32443-3.5465 0.58931-6.6199 0.5886-6.8297-1e-3 -0.37383-0.11326-0.38055-5.5806-0.33483-3.0686 0.0257-7.6416 0.0991-10.162 0.16322l-4.583 0.11657-0.64124 6.9444c-0.36217 3.9223-0.59462 7.396-0.53413 7.9821 0.16825 1.6302 0.96219 3.1611 2.3112 4.4564 1.3805 1.3256 2.9032 2.1432 5.2153 2.8002 2.4509 0.69642 3.7503 0.80565 9.9021 0.83234l5.5613 0.0241z" opacity=".99078" style="paint-order:markers fill stroke"/>
  </g>
  <g fill-rule="evenodd">
   <path transform="scale(.26458)" d="m130.99 551.56 3.8224 0.24967c5.4404 0.35535 8.6182 0.26845 8.7743 0.52105 0.17111 0.27686 3.5351 0.25463 11.231-0.0742 6.0424-0.2582 14.186-0.51785 18.098-0.577 10.38-0.157 19.046-0.56295 19.268-0.90265 0.10671-0.16303 1.8362-0.41477 3.8432-0.55942 3.296-0.23754 3.6492-0.20104 3.6492 0.37705 0 0.57498 0.34833 0.61532 3.426 0.39686 1.8843-0.13375 6.516-0.24318 10.293-0.24318 5.8542 0 6.8667-0.0828 6.8667-0.56142 0-0.44145 0.51983-0.56142 2.4328-0.56142s2.4328 0.11997 2.4328 0.56142c0 0.472 0.82516 0.56142 5.1807 0.56142 8.9059 0 15.405-0.41922 15.405-0.99372 0-0.37693 0.70523-0.50339 2.8071-0.50339 2.2457 0 2.8071 0.11228 2.8071 0.56141 0 0.48543 1.3932 0.56142 10.293 0.56142 8.8995 0 10.293-0.076 10.293-0.56142 0-0.3921 0.39507-0.56141 1.31-0.56141 0.84631 0 1.31 0.17777 1.31 0.50224 0 0.39355 1.5186 0.55531 7.0177 0.7475 3.8598 0.13489 8.4914 0.24573 10.293 0.24631 3.0258 9.8e-4 3.2749-0.0559 3.2749-0.7475 0-0.71017 0.24952-0.74855 4.8656-0.74855 4.4877 0 4.8656 0.0539 4.8656 0.69363 0 0.5938 0.41217 0.72848 2.8636 0.9357 1.575 0.13313 6.1111 0.24206 10.08 0.24206 6.888 0 7.2276-0.0341 7.4543-0.74856 0.19324-0.60885 0.56467-0.74795 1.9902-0.7453 3.5308 7e-3 5.6825 0.42842 5.6825 1.1141 0 0.57963 0.92632 0.66345 10.001 0.90497 9.0874 0.24186 10.043 0.20924 10.457-0.35693 0.3873-0.52967 0.86599-0.58228 3.192-0.35085 1.505 0.14974 2.8563 0.46262 3.0028 0.69527 0.1812 0.2877 3.8328 0.51869 11.416 0.72214 9.9012 0.26564 23.483 1.208 37.536 2.6045l4.6785 0.4649-12.164 0.12631c-6.6902 0.0695-18.808-0.0822-26.929-0.33706-11.119-0.34894-14.801-0.35703-14.909-0.0327-0.093 0.27901-1.2486 0.43063-3.282 0.43063-2.636 0-3.1039-0.0899-2.923-0.56142 0.18341-0.47796-0.39359-0.56141-3.8819-0.56141-2.2535 0-6.9032-0.11067-10.333-0.24592l-6.2354-0.24592v1.989h-3.9299c-3.8911 0-3.9299-9e-3 -3.9299-0.89204 0-0.6087-0.26749-0.96373-0.84213-1.1177-0.46317-0.12412-5.0106-0.22798-10.106-0.23079l-9.2634-5e-3v2.2457h-10.139l0.4915-2.62-8.3694-3e-3c-4.6032-2e-3 -9.2536-0.10945-10.334-0.23927l-1.965-0.23602v3.4728h-2.9799l0.23085-1.6842 0.23086-1.6843-9.5014 5e-3c-5.2258 3e-3 -9.8804 0.10667-10.344 0.23079-0.56402 0.15116-0.84213 0.51017-0.84213 1.0871 0 1.8463-0.29553 2.0455-3.0343 2.0455h-2.5799v-2.9942h-20.585v3.3685h-4.8656v-3.4866l-6.797 0.24621c-3.7384 0.13541-8.37 0.2462-10.293 0.2462h-3.4956v3.3685l-1.965 3e-3c-1.0807 2e-3 -2.8582 0.11054-3.95 0.24166l-1.9851 0.2384 0.50468-3.8045-4.0686 0.16427c-2.2377 0.0903-6.8698 0.26519-10.294 0.38853l-6.225 0.22427-0.19987 1.4901c-0.10993 0.81957-0.25614 1.5432-0.32491 1.608-0.0688 0.0648-1.7858 0.24078-3.8157 0.39099l-3.6907 0.2731 0.28442-3.5761-6.9313 0.24225c-3.8122 0.13324-8.2246 0.24272-9.8052 0.24331-3.3627 1e-3 -4.0502 0.44157-4.0502 2.594v1.4167l-3.4621 0.26109c-1.9042 0.1436-4.1736 0.35849-5.0432 0.47754-1.4183 0.19416-1.7644 0.16579-1.9173-0.67524l-6.1177-3.2483z" fill="#ff0" fill-opacity=".92973" opacity=".99078" style="paint-order:markers fill stroke"/>
   <path transform="scale(.26458)" d="m334.79 669.09c-1.9313-3.1605-3.7267-5.6221-9.5659-13.116-1.6969-2.1778-3.5466-4.9778-4.1105-6.2222-1.6423-3.6243-7.2218-8.3646-15.248-12.955-5.3955-3.0854-8.4054-4.179-13.163-4.7824-2.3186-0.2941-5.743-0.82633-7.6096-1.1828l-3.3939-0.64804 1.5084-0.46319c3.4343-1.0546 8.81-0.3528 15.974 2.0854 2.5126 0.8551 5.2917 1.652 6.1757 1.771 0.88401 0.11894 4.1527-0.0667 7.2638-0.41265 9.313-1.0354 13.769-1.2754 17.158-0.92402 8.3221 0.86283 11.409 3.2372 14.295 10.996 2.032 5.4624 3.4312 8.3893 5.4134 11.324 0.94569 1.4 1.6448 2.5454 1.5536 2.5454s-1.1367-0.48577-2.3234-1.0795c-3.2666-1.6344-4.7111-2.0231-5.8741-1.581-1.9478 0.74054-3.2763 4.1107-5.1135 12.971l-1.0041 4.8428z" fill="#000080" fill-opacity=".99608" opacity=".99078" style="paint-order:markers fill stroke"/>
   <path transform="scale(.26458)" d="m246.07 546.89c4e-3 -0.25925 0.2553-2.7623 0.55816-5.5623 0.82589-7.6354 1.2732-6.7879-3.5825-6.7879-2.2815 0-4.1481-0.092-4.1481-0.20445 0-0.78237 1.3391-6.572 2.126-9.1918 6.0436-20.12 23.439-36.7 44.069-42.003 5.5696-1.4317 9.156-1.8668 15.461-1.8759 4.8958-7e-3 11.319 0.54959 11.792 1.0218 0.084 0.084-2.0257 8.138-4.6881 17.898l-4.8408 17.745-5.8983 0.17952c-4.6597 0.14182-6.4018 0.34766-8.2963 0.98024-5.2963 1.7685-9.4548 4.9376-11.119 8.474-0.48812 1.037-0.88915 2.0574-0.89118 2.2675-2e-3 0.21008-0.38534 0.54947-0.8518 0.75421-0.50643 0.22227-1.1521 1.1319-1.6027 2.2578l-0.75457 1.8855-20.454-0.20049-0.21214 1.4201c-0.11667 0.78106-0.42023 3.6686-0.67457 6.4167l-0.46245 4.9966h-2.7685c-1.9674 0-2.7663-0.13639-2.761-0.47138z" fill="#0ff" fill-opacity=".99608" opacity=".99078" style="paint-order:markers fill stroke"/>
  </g>
 </g>
 <script id="mesh_polyfill" type="text/javascript">!function(){const t="http://www.w3.org/2000/svg",e="http://www.w3.org/1999/xlink",s="http://www.w3.org/1999/xhtml",r=2;if(document.createElementNS(t,"meshgradient").x)return;const n=(t,e,s,r)=&gt;{let n=new x(.5*(e.x+s.x),.5*(e.y+s.y)),o=new x(.5*(t.x+e.x),.5*(t.y+e.y)),i=new x(.5*(s.x+r.x),.5*(s.y+r.y)),a=new x(.5*(n.x+o.x),.5*(n.y+o.y)),h=new x(.5*(n.x+i.x),.5*(n.y+i.y)),l=new x(.5*(a.x+h.x),.5*(a.y+h.y));return[[t,o,a,l],[l,h,i,r]]},o=t=&gt;{let e=t[0].distSquared(t[1]),s=t[2].distSquared(t[3]),r=.25*t[0].distSquared(t[2]),n=.25*t[1].distSquared(t[3]),o=e&gt;s?e:s,i=r&gt;n?r:n;return 18*(o&gt;i?o:i)},i=(t,e)=&gt;Math.sqrt(t.distSquared(e)),a=(t,e)=&gt;t.scale(2/3).add(e.scale(1/3)),h=t=&gt;{let e,s,r,n,o,i,a,h=new g;return t.match(/(\w+\(\s*[^)]+\))+/g).forEach(t=&gt;{let l=t.match(/[\w.-]+/g),d=l.shift();switch(d){case"translate":2===l.length?e=new g(1,0,0,1,l[0],l[1]):(console.error("mesh.js: translate does not have 2 arguments!"),e=new g(1,0,0,1,0,0)),h=h.append(e);break;case"scale":1===l.length?s=new g(l[0],0,0,l[0],0,0):2===l.length?s=new g(l[0],0,0,l[1],0,0):(console.error("mesh.js: scale does not have 1 or 2 arguments!"),s=new g(1,0,0,1,0,0)),h=h.append(s);break;case"rotate":if(3===l.length&amp;&amp;(e=new g(1,0,0,1,l[1],l[2]),h=h.append(e)),l[0]){r=l[0]*Math.PI/180;let t=Math.cos(r),e=Math.sin(r);Math.abs(t)&lt;1e-16&amp;&amp;(t=0),Math.abs(e)&lt;1e-16&amp;&amp;(e=0),a=new g(t,e,-e,t,0,0),h=h.append(a)}else console.error("math.js: No argument to rotate transform!");3===l.length&amp;&amp;(e=new g(1,0,0,1,-l[1],-l[2]),h=h.append(e));break;case"skewX":l[0]?(r=l[0]*Math.PI/180,n=Math.tan(r),o=new g(1,0,n,1,0,0),h=h.append(o)):console.error("math.js: No argument to skewX transform!");break;case"skewY":l[0]?(r=l[0]*Math.PI/180,n=Math.tan(r),i=new g(1,n,0,1,0,0),h=h.append(i)):console.error("math.js: No argument to skewY transform!");break;case"matrix":6===l.length?h=h.append(new g(...l)):console.error("math.js: Incorrect number of arguments for matrix!");break;default:console.error("mesh.js: Unhandled transform type: "+d)}}),h},l=t=&gt;{let e=[],s=t.split(/[ ,]+/);for(let t=0,r=s.length-1;t&lt;r;t+=2)e.push(new x(parseFloat(s[t]),parseFloat(s[t+1])));return e},d=(t,e)=&gt;{for(let s in e)t.setAttribute(s,e[s])},c=(t,e,s,r,n)=&gt;{let o,i,a=[0,0,0,0];for(let h=0;h&lt;3;++h)e[h]&lt;t[h]&amp;&amp;e[h]&lt;s[h]||t[h]&lt;e[h]&amp;&amp;s[h]&lt;e[h]?a[h]=0:(a[h]=.5*((e[h]-t[h])/r+(s[h]-e[h])/n),o=Math.abs(3*(e[h]-t[h])/r),i=Math.abs(3*(s[h]-e[h])/n),a[h]&gt;o?a[h]=o:a[h]&gt;i&amp;&amp;(a[h]=i));return a},u=[[1,0,0,0,0,0,0,0,0,0,0,0,0,0,0,0],[0,0,0,0,1,0,0,0,0,0,0,0,0,0,0,0],[-3,3,0,0,-2,-1,0,0,0,0,0,0,0,0,0,0],[2,-2,0,0,1,1,0,0,0,0,0,0,0,0,0,0],[0,0,0,0,0,0,0,0,1,0,0,0,0,0,0,0],[0,0,0,0,0,0,0,0,0,0,0,0,1,0,0,0],[0,0,0,0,0,0,0,0,-3,3,0,0,-2,-1,0,0],[0,0,0,0,0,0,0,0,2,-2,0,0,1,1,0,0],[-3,0,3,0,0,0,0,0,-2,0,-1,0,0,0,0,0],[0,0,0,0,-3,0,3,0,0,0,0,0,-2,0,-1,0],[9,-9,-9,9,6,3,-6,-3,6,-6,3,-3,4,2,2,1],[-6,6,6,-6,-3,-3,3,3,-4,4,-2,2,-2,-2,-1,-1],[2,0,-2,0,0,0,0,0,1,0,1,0,0,0,0,0],[0,0,0,0,2,0,-2,0,0,0,0,0,1,0,1,0],[-6,6,6,-6,-4,-2,4,2,-3,3,-3,3,-2,-1,-2,-1],[4,-4,-4,4,2,2,-2,-2,2,-2,2,-2,1,1,1,1]],f=t=&gt;{let e=[];for(let s=0;s&lt;16;++s){e[s]=0;for(let r=0;r&lt;16;++r)e[s]+=u[s][r]*t[r]}return e},p=(t,e,s)=&gt;{const r=e*e,n=s*s,o=e*e*e,i=s*s*s;return t[0]+t[1]*e+t[2]*r+t[3]*o+t[4]*s+t[5]*s*e+t[6]*s*r+t[7]*s*o+t[8]*n+t[9]*n*e+t[10]*n*r+t[11]*n*o+t[12]*i+t[13]*i*e+t[14]*i*r+t[15]*i*o},y=t=&gt;{let e=[],s=[],r=[];for(let s=0;s&lt;4;++s)e[s]=[],e[s][0]=n(t[0][s],t[1][s],t[2][s],t[3][s]),e[s][1]=[],e[s][1].push(...n(...e[s][0][0])),e[s][1].push(...n(...e[s][0][1])),e[s][2]=[],e[s][2].push(...n(...e[s][1][0])),e[s][2].push(...n(...e[s][1][1])),e[s][2].push(...n(...e[s][1][2])),e[s][2].push(...n(...e[s][1][3]));for(let t=0;t&lt;8;++t){s[t]=[];for(let r=0;r&lt;4;++r)s[t][r]=[],s[t][r][0]=n(e[0][2][t][r],e[1][2][t][r],e[2][2][t][r],e[3][2][t][r]),s[t][r][1]=[],s[t][r][1].push(...n(...s[t][r][0][0])),s[t][r][1].push(...n(...s[t][r][0][1])),s[t][r][2]=[],s[t][r][2].push(...n(...s[t][r][1][0])),s[t][r][2].push(...n(...s[t][r][1][1])),s[t][r][2].push(...n(...s[t][r][1][2])),s[t][r][2].push(...n(...s[t][r][1][3]))}for(let t=0;t&lt;8;++t){r[t]=[];for(let e=0;e&lt;8;++e)r[t][e]=[],r[t][e][0]=s[t][0][2][e],r[t][e][1]=s[t][1][2][e],r[t][e][2]=s[t][2][2][e],r[t][e][3]=s[t][3][2][e]}return r};class x{constructor(t,e){this.x=t||0,this.y=e||0}toString(){return`(x=${this.x}, y=${this.y})`}clone(){return new x(this.x,this.y)}add(t){return new x(this.x+t.x,this.y+t.y)}scale(t){return void 0===t.x?new x(this.x*t,this.y*t):new x(this.x*t.x,this.y*t.y)}distSquared(t){let e=this.x-t.x,s=this.y-t.y;return e*e+s*s}transform(t){let e=this.x*t.a+this.y*t.c+t.e,s=this.x*t.b+this.y*t.d+t.f;return new x(e,s)}}class g{constructor(t,e,s,r,n,o){void 0===t?(this.a=1,this.b=0,this.c=0,this.d=1,this.e=0,this.f=0):(this.a=t,this.b=e,this.c=s,this.d=r,this.e=n,this.f=o)}toString(){return`affine: ${this.a} ${this.c} ${this.e} \n       ${this.b} ${this.d} ${this.f}`}append(t){t instanceof g||console.error("mesh.js: argument to Affine.append is not affine!");let e=this.a*t.a+this.c*t.b,s=this.b*t.a+this.d*t.b,r=this.a*t.c+this.c*t.d,n=this.b*t.c+this.d*t.d,o=this.a*t.e+this.c*t.f+this.e,i=this.b*t.e+this.d*t.f+this.f;return new g(e,s,r,n,o,i)}}class w{constructor(t,e){this.nodes=t,this.colors=e}paintCurve(t,e){if(o(this.nodes)&gt;r){const s=n(...this.nodes);let r=[[],[]],o=[[],[]];for(let t=0;t&lt;4;++t)r[0][t]=this.colors[0][t],r[1][t]=(this.colors[0][t]+this.colors[1][t])/2,o[0][t]=r[1][t],o[1][t]=this.colors[1][t];let i=new w(s[0],r),a=new w(s[1],o);i.paintCurve(t,e),a.paintCurve(t,e)}else{let s=Math.round(this.nodes[0].x);if(s&gt;=0&amp;&amp;s&lt;e){let r=4*(~~this.nodes[0].y*e+s);t[r]=Math.round(this.colors[0][0]),t[r+1]=Math.round(this.colors[0][1]),t[r+2]=Math.round(this.colors[0][2]),t[r+3]=Math.round(this.colors[0][3])}}}}class m{constructor(t,e){this.nodes=t,this.colors=e}split(){let t=[[],[],[],[]],e=[[],[],[],[]],s=[[[],[]],[[],[]]],r=[[[],[]],[[],[]]];for(let s=0;s&lt;4;++s){const r=n(this.nodes[0][s],this.nodes[1][s],this.nodes[2][s],this.nodes[3][s]);t[0][s]=r[0][0],t[1][s]=r[0][1],t[2][s]=r[0][2],t[3][s]=r[0][3],e[0][s]=r[1][0],e[1][s]=r[1][1],e[2][s]=r[1][2],e[3][s]=r[1][3]}for(let t=0;t&lt;4;++t)s[0][0][t]=this.colors[0][0][t],s[0][1][t]=this.colors[0][1][t],s[1][0][t]=(this.colors[0][0][t]+this.colors[1][0][t])/2,s[1][1][t]=(this.colors[0][1][t]+this.colors[1][1][t])/2,r[0][0][t]=s[1][0][t],r[0][1][t]=s[1][1][t],r[1][0][t]=this.colors[1][0][t],r[1][1][t]=this.colors[1][1][t];return[new m(t,s),new m(e,r)]}paint(t,e){let s,n=!1;for(let t=0;t&lt;4;++t)if((s=o([this.nodes[0][t],this.nodes[1][t],this.nodes[2][t],this.nodes[3][t]]))&gt;r){n=!0;break}if(n){let s=this.split();s[0].paint(t,e),s[1].paint(t,e)}else{new w([...this.nodes[0]],[...this.colors[0]]).paintCurve(t,e)}}}class b{constructor(t){this.readMesh(t),this.type=t.getAttribute("type")||"bilinear"}readMesh(t){let e=[[]],s=[[]],r=Number(t.getAttribute("x")),n=Number(t.getAttribute("y"));e[0][0]=new x(r,n);let o=t.children;for(let t=0,r=o.length;t&lt;r;++t){e[3*t+1]=[],e[3*t+2]=[],e[3*t+3]=[],s[t+1]=[];let r=o[t].children;for(let n=0,o=r.length;n&lt;o;++n){let o=r[n].children;for(let r=0,i=o.length;r&lt;i;++r){let i=r;0!==t&amp;&amp;++i;let h,d=o[r].getAttribute("path"),c="l";null!=d&amp;&amp;(c=(h=d.match(/\s*([lLcC])\s*(.*)/))[1]);let u=l(h[2]);switch(c){case"l":0===i?(e[3*t][3*n+3]=u[0].add(e[3*t][3*n]),e[3*t][3*n+1]=a(e[3*t][3*n],e[3*t][3*n+3]),e[3*t][3*n+2]=a(e[3*t][3*n+3],e[3*t][3*n])):1===i?(e[3*t+3][3*n+3]=u[0].add(e[3*t][3*n+3]),e[3*t+1][3*n+3]=a(e[3*t][3*n+3],e[3*t+3][3*n+3]),e[3*t+2][3*n+3]=a(e[3*t+3][3*n+3],e[3*t][3*n+3])):2===i?(0===n&amp;&amp;(e[3*t+3][3*n+0]=u[0].add(e[3*t+3][3*n+3])),e[3*t+3][3*n+1]=a(e[3*t+3][3*n],e[3*t+3][3*n+3]),e[3*t+3][3*n+2]=a(e[3*t+3][3*n+3],e[3*t+3][3*n])):(e[3*t+1][3*n]=a(e[3*t][3*n],e[3*t+3][3*n]),e[3*t+2][3*n]=a(e[3*t+3][3*n],e[3*t][3*n]));break;case"L":0===i?(e[3*t][3*n+3]=u[0],e[3*t][3*n+1]=a(e[3*t][3*n],e[3*t][3*n+3]),e[3*t][3*n+2]=a(e[3*t][3*n+3],e[3*t][3*n])):1===i?(e[3*t+3][3*n+3]=u[0],e[3*t+1][3*n+3]=a(e[3*t][3*n+3],e[3*t+3][3*n+3]),e[3*t+2][3*n+3]=a(e[3*t+3][3*n+3],e[3*t][3*n+3])):2===i?(0===n&amp;&amp;(e[3*t+3][3*n+0]=u[0]),e[3*t+3][3*n+1]=a(e[3*t+3][3*n],e[3*t+3][3*n+3]),e[3*t+3][3*n+2]=a(e[3*t+3][3*n+3],e[3*t+3][3*n])):(e[3*t+1][3*n]=a(e[3*t][3*n],e[3*t+3][3*n]),e[3*t+2][3*n]=a(e[3*t+3][3*n],e[3*t][3*n]));break;case"c":0===i?(e[3*t][3*n+1]=u[0].add(e[3*t][3*n]),e[3*t][3*n+2]=u[1].add(e[3*t][3*n]),e[3*t][3*n+3]=u[2].add(e[3*t][3*n])):1===i?(e[3*t+1][3*n+3]=u[0].add(e[3*t][3*n+3]),e[3*t+2][3*n+3]=u[1].add(e[3*t][3*n+3]),e[3*t+3][3*n+3]=u[2].add(e[3*t][3*n+3])):2===i?(e[3*t+3][3*n+2]=u[0].add(e[3*t+3][3*n+3]),e[3*t+3][3*n+1]=u[1].add(e[3*t+3][3*n+3]),0===n&amp;&amp;(e[3*t+3][3*n+0]=u[2].add(e[3*t+3][3*n+3]))):(e[3*t+2][3*n]=u[0].add(e[3*t+3][3*n]),e[3*t+1][3*n]=u[1].add(e[3*t+3][3*n]));break;case"C":0===i?(e[3*t][3*n+1]=u[0],e[3*t][3*n+2]=u[1],e[3*t][3*n+3]=u[2]):1===i?(e[3*t+1][3*n+3]=u[0],e[3*t+2][3*n+3]=u[1],e[3*t+3][3*n+3]=u[2]):2===i?(e[3*t+3][3*n+2]=u[0],e[3*t+3][3*n+1]=u[1],0===n&amp;&amp;(e[3*t+3][3*n+0]=u[2])):(e[3*t+2][3*n]=u[0],e[3*t+1][3*n]=u[1]);break;default:console.error("mesh.js: "+c+" invalid path type.")}if(0===t&amp;&amp;0===n||r&gt;0){let e=window.getComputedStyle(o[r]).stopColor.match(/^rgb\s*\(\s*(\d+)\s*,\s*(\d+)\s*,\s*(\d+)\s*\)$/i),a=window.getComputedStyle(o[r]).stopOpacity,h=255;a&amp;&amp;(h=Math.floor(255*a)),e&amp;&amp;(0===i?(s[t][n]=[],s[t][n][0]=Math.floor(e[1]),s[t][n][1]=Math.floor(e[2]),s[t][n][2]=Math.floor(e[3]),s[t][n][3]=h):1===i?(s[t][n+1]=[],s[t][n+1][0]=Math.floor(e[1]),s[t][n+1][1]=Math.floor(e[2]),s[t][n+1][2]=Math.floor(e[3]),s[t][n+1][3]=h):2===i?(s[t+1][n+1]=[],s[t+1][n+1][0]=Math.floor(e[1]),s[t+1][n+1][1]=Math.floor(e[2]),s[t+1][n+1][2]=Math.floor(e[3]),s[t+1][n+1][3]=h):3===i&amp;&amp;(s[t+1][n]=[],s[t+1][n][0]=Math.floor(e[1]),s[t+1][n][1]=Math.floor(e[2]),s[t+1][n][2]=Math.floor(e[3]),s[t+1][n][3]=h))}}e[3*t+1][3*n+1]=new x,e[3*t+1][3*n+2]=new x,e[3*t+2][3*n+1]=new x,e[3*t+2][3*n+2]=new x,e[3*t+1][3*n+1].x=(-4*e[3*t][3*n].x+6*(e[3*t][3*n+1].x+e[3*t+1][3*n].x)+-2*(e[3*t][3*n+3].x+e[3*t+3][3*n].x)+3*(e[3*t+3][3*n+1].x+e[3*t+1][3*n+3].x)+-1*e[3*t+3][3*n+3].x)/9,e[3*t+1][3*n+2].x=(-4*e[3*t][3*n+3].x+6*(e[3*t][3*n+2].x+e[3*t+1][3*n+3].x)+-2*(e[3*t][3*n].x+e[3*t+3][3*n+3].x)+3*(e[3*t+3][3*n+2].x+e[3*t+1][3*n].x)+-1*e[3*t+3][3*n].x)/9,e[3*t+2][3*n+1].x=(-4*e[3*t+3][3*n].x+6*(e[3*t+3][3*n+1].x+e[3*t+2][3*n].x)+-2*(e[3*t+3][3*n+3].x+e[3*t][3*n].x)+3*(e[3*t][3*n+1].x+e[3*t+2][3*n+3].x)+-1*e[3*t][3*n+3].x)/9,e[3*t+2][3*n+2].x=(-4*e[3*t+3][3*n+3].x+6*(e[3*t+3][3*n+2].x+e[3*t+2][3*n+3].x)+-2*(e[3*t+3][3*n].x+e[3*t][3*n+3].x)+3*(e[3*t][3*n+2].x+e[3*t+2][3*n].x)+-1*e[3*t][3*n].x)/9,e[3*t+1][3*n+1].y=(-4*e[3*t][3*n].y+6*(e[3*t][3*n+1].y+e[3*t+1][3*n].y)+-2*(e[3*t][3*n+3].y+e[3*t+3][3*n].y)+3*(e[3*t+3][3*n+1].y+e[3*t+1][3*n+3].y)+-1*e[3*t+3][3*n+3].y)/9,e[3*t+1][3*n+2].y=(-4*e[3*t][3*n+3].y+6*(e[3*t][3*n+2].y+e[3*t+1][3*n+3].y)+-2*(e[3*t][3*n].y+e[3*t+3][3*n+3].y)+3*(e[3*t+3][3*n+2].y+e[3*t+1][3*n].y)+-1*e[3*t+3][3*n].y)/9,e[3*t+2][3*n+1].y=(-4*e[3*t+3][3*n].y+6*(e[3*t+3][3*n+1].y+e[3*t+2][3*n].y)+-2*(e[3*t+3][3*n+3].y+e[3*t][3*n].y)+3*(e[3*t][3*n+1].y+e[3*t+2][3*n+3].y)+-1*e[3*t][3*n+3].y)/9,e[3*t+2][3*n+2].y=(-4*e[3*t+3][3*n+3].y+6*(e[3*t+3][3*n+2].y+e[3*t+2][3*n+3].y)+-2*(e[3*t+3][3*n].y+e[3*t][3*n+3].y)+3*(e[3*t][3*n+2].y+e[3*t+2][3*n].y)+-1*e[3*t][3*n].y)/9}}this.nodes=e,this.colors=s}paintMesh(t,e){let s=(this.nodes.length-1)/3,r=(this.nodes[0].length-1)/3;if("bilinear"===this.type||s&lt;2||r&lt;2){let n;for(let o=0;o&lt;s;++o)for(let s=0;s&lt;r;++s){let r=[];for(let t=3*o,e=3*o+4;t&lt;e;++t)r.push(this.nodes[t].slice(3*s,3*s+4));let i=[];i.push(this.colors[o].slice(s,s+2)),i.push(this.colors[o+1].slice(s,s+2)),(n=new m(r,i)).paint(t,e)}}else{let n,o,a,h,l,d,u;const x=s,g=r;s++,r++;let w=new Array(s);for(let t=0;t&lt;s;++t){w[t]=new Array(r);for(let e=0;e&lt;r;++e)w[t][e]=[],w[t][e][0]=this.nodes[3*t][3*e],w[t][e][1]=this.colors[t][e]}for(let t=0;t&lt;s;++t)for(let e=0;e&lt;r;++e)0!==t&amp;&amp;t!==x&amp;&amp;(n=i(w[t-1][e][0],w[t][e][0]),o=i(w[t+1][e][0],w[t][e][0]),w[t][e][2]=c(w[t-1][e][1],w[t][e][1],w[t+1][e][1],n,o)),0!==e&amp;&amp;e!==g&amp;&amp;(n=i(w[t][e-1][0],w[t][e][0]),o=i(w[t][e+1][0],w[t][e][0]),w[t][e][3]=c(w[t][e-1][1],w[t][e][1],w[t][e+1][1],n,o));for(let t=0;t&lt;r;++t){w[0][t][2]=[],w[x][t][2]=[];for(let e=0;e&lt;4;++e)n=i(w[1][t][0],w[0][t][0]),o=i(w[x][t][0],w[x-1][t][0]),w[0][t][2][e]=n&gt;0?2*(w[1][t][1][e]-w[0][t][1][e])/n-w[1][t][2][e]:0,w[x][t][2][e]=o&gt;0?2*(w[x][t][1][e]-w[x-1][t][1][e])/o-w[x-1][t][2][e]:0}for(let t=0;t&lt;s;++t){w[t][0][3]=[],w[t][g][3]=[];for(let e=0;e&lt;4;++e)n=i(w[t][1][0],w[t][0][0]),o=i(w[t][g][0],w[t][g-1][0]),w[t][0][3][e]=n&gt;0?2*(w[t][1][1][e]-w[t][0][1][e])/n-w[t][1][3][e]:0,w[t][g][3][e]=o&gt;0?2*(w[t][g][1][e]-w[t][g-1][1][e])/o-w[t][g-1][3][e]:0}for(let s=0;s&lt;x;++s)for(let r=0;r&lt;g;++r){let n=i(w[s][r][0],w[s+1][r][0]),o=i(w[s][r+1][0],w[s+1][r+1][0]),c=i(w[s][r][0],w[s][r+1][0]),x=i(w[s+1][r][0],w[s+1][r+1][0]),g=[[],[],[],[]];for(let t=0;t&lt;4;++t){(d=[])[0]=w[s][r][1][t],d[1]=w[s+1][r][1][t],d[2]=w[s][r+1][1][t],d[3]=w[s+1][r+1][1][t],d[4]=w[s][r][2][t]*n,d[5]=w[s+1][r][2][t]*n,d[6]=w[s][r+1][2][t]*o,d[7]=w[s+1][r+1][2][t]*o,d[8]=w[s][r][3][t]*c,d[9]=w[s+1][r][3][t]*x,d[10]=w[s][r+1][3][t]*c,d[11]=w[s+1][r+1][3][t]*x,d[12]=0,d[13]=0,d[14]=0,d[15]=0,u=f(d);for(let e=0;e&lt;9;++e){g[t][e]=[];for(let s=0;s&lt;9;++s)g[t][e][s]=p(u,e/8,s/8),g[t][e][s]&gt;255?g[t][e][s]=255:g[t][e][s]&lt;0&amp;&amp;(g[t][e][s]=0)}}h=[];for(let t=3*s,e=3*s+4;t&lt;e;++t)h.push(this.nodes[t].slice(3*r,3*r+4));l=y(h);for(let s=0;s&lt;8;++s)for(let r=0;r&lt;8;++r)(a=new m(l[s][r],[[[g[0][s][r],g[1][s][r],g[2][s][r],g[3][s][r]],[g[0][s][r+1],g[1][s][r+1],g[2][s][r+1],g[3][s][r+1]]],[[g[0][s+1][r],g[1][s+1][r],g[2][s+1][r],g[3][s+1][r]],[g[0][s+1][r+1],g[1][s+1][r+1],g[2][s+1][r+1],g[3][s+1][r+1]]]])).paint(t,e)}}}transform(t){if(t instanceof x)for(let e=0,s=this.nodes.length;e&lt;s;++e)for(let s=0,r=this.nodes[0].length;s&lt;r;++s)this.nodes[e][s]=this.nodes[e][s].add(t);else if(t instanceof g)for(let e=0,s=this.nodes.length;e&lt;s;++e)for(let s=0,r=this.nodes[0].length;s&lt;r;++s)this.nodes[e][s]=this.nodes[e][s].transform(t)}scale(t){for(let e=0,s=this.nodes.length;e&lt;s;++e)for(let s=0,r=this.nodes[0].length;s&lt;r;++s)this.nodes[e][s]=this.nodes[e][s].scale(t)}}document.querySelectorAll("rect,circle,ellipse,path,text").forEach((r,n)=&gt;{let o=r.getAttribute("id");o||(o="patchjs_shape"+n,r.setAttribute("id",o));const i=r.style.fill.match(/^url\(\s*"?\s*#([^\s"]+)"?\s*\)/),a=r.style.stroke.match(/^url\(\s*"?\s*#([^\s"]+)"?\s*\)/);if(i&amp;&amp;i[1]){const a=document.getElementById(i[1]);if(a&amp;&amp;"meshgradient"===a.nodeName){const i=r.getBBox();let l=document.createElementNS(s,"canvas");d(l,{width:i.width,height:i.height});const c=l.getContext("2d");let u=c.createImageData(i.width,i.height);const f=new b(a);"objectBoundingBox"===a.getAttribute("gradientUnits")&amp;&amp;f.scale(new x(i.width,i.height));const p=a.getAttribute("gradientTransform");null!=p&amp;&amp;f.transform(h(p)),"userSpaceOnUse"===a.getAttribute("gradientUnits")&amp;&amp;f.transform(new x(-i.x,-i.y)),f.paintMesh(u.data,l.width),c.putImageData(u,0,0);const y=document.createElementNS(t,"image");d(y,{width:i.width,height:i.height,x:i.x,y:i.y});let g=l.toDataURL();y.setAttributeNS(e,"xlink:href",g),r.parentNode.insertBefore(y,r),r.style.fill="none";const w=document.createElementNS(t,"use");w.setAttributeNS(e,"xlink:href","#"+o);const m="patchjs_clip"+n,M=document.createElementNS(t,"clipPath");M.setAttribute("id",m),M.appendChild(w),r.parentElement.insertBefore(M,r),y.setAttribute("clip-path","url(#"+m+")"),u=null,l=null,g=null}}if(a&amp;&amp;a[1]){const o=document.getElementById(a[1]);if(o&amp;&amp;"meshgradient"===o.nodeName){const i=parseFloat(r.style.strokeWidth.slice(0,-2))*(parseFloat(r.style.strokeMiterlimit)||parseFloat(r.getAttribute("stroke-miterlimit"))||1),a=r.getBBox(),l=Math.trunc(a.width+i),c=Math.trunc(a.height+i),u=Math.trunc(a.x-i/2),f=Math.trunc(a.y-i/2);let p=document.createElementNS(s,"canvas");d(p,{width:l,height:c});const y=p.getContext("2d");let g=y.createImageData(l,c);const w=new b(o);"objectBoundingBox"===o.getAttribute("gradientUnits")&amp;&amp;w.scale(new x(l,c));const m=o.getAttribute("gradientTransform");null!=m&amp;&amp;w.transform(h(m)),"userSpaceOnUse"===o.getAttribute("gradientUnits")&amp;&amp;w.transform(new x(-u,-f)),w.paintMesh(g.data,p.width),y.putImageData(g,0,0);const M=document.createElementNS(t,"image");d(M,{width:l,height:c,x:0,y:0});let S=p.toDataURL();M.setAttributeNS(e,"xlink:href",S);const k="pattern_clip"+n,A=document.createElementNS(t,"pattern");d(A,{id:k,patternUnits:"userSpaceOnUse",width:l,height:c,x:u,y:f}),A.appendChild(M),o.parentNode.appendChild(A),r.style.stroke="url(#"+k+")",g=null,p=null,S=null}}})}();</script>
</svg>
